<svg xmlns="http://www.w3.org/2000/svg" xmlns:xlink="http://www.w3.org/1999/xlink" xmlns:lucid="lucid" width="2148.5" height="1263"><g transform="translate(600.5 -58.5)" lucid:page-tab-id="0_0"><path d="M-280 66a6 6 0 0 1 6-6h1528a6 6 0 0 1 6 6v1248a6 6 0 0 1-6 6H-274a6 6 0 0 1-6-6z" stroke="#242f3e" stroke-width="3" fill="#fff" fill-opacity="0"/><path d="M-280 60h56v56h-56V60z" stroke="#fff" stroke-opacity="0" fill="#242f3e"/><path d="M-261.78 85.87c-.04.48.04.87.17 1.34.1.4.28.7.48 1.08.04.1.08.2.08.33 0 .2-.12.36-.28.46l-.95.62c-.12.08-.25.13-.37.13-.16 0-.33-.06-.45-.2-.2-.2-.36-.43-.52-.7-.17-.25-.3-.53-.45-.86-1.1 1.37-2.63 2.1-4.4 2.06-1.15.06-2.13-.3-2.96-1.08-.78-.8-1.14-1.76-1.1-2.85-.05-1.23.4-2.28 1.35-3.08 1.07-.85 2.3-1.23 3.66-1.16.57 0 1.02.02 1.6.1.57.1 1.1.2 1.72.33v-1.1c.08-.88-.16-1.67-.7-2.37-.74-.56-1.56-.8-2.46-.7-.53 0-1.03.07-1.6.2-.58.13-1.03.3-1.6.5l-.5.2h-.24c-.2 0-.33-.16-.33-.45v-.75c0-.18.04-.34.12-.5.12-.16.24-.26.4-.33.66-.3 1.2-.5 1.9-.67.77-.2 1.47-.3 2.3-.28 1.47-.13 2.78.26 3.9 1.2.94 1.05 1.35 2.28 1.22 3.67zm-6.07 2.28c.57 0 1.06-.1 1.6-.28.57-.2 1.02-.5 1.44-.96.23-.27.4-.57.48-.93.12-.45.16-.84.16-1.3V84c-.53-.1-.94-.17-1.44-.2h-1.4c-.8-.08-1.55.12-2.2.58-.54.45-.8 1.04-.75 1.73-.04.62.13 1.16.54 1.6.44.38.97.52 1.55.45zm12 1.6c-.22.02-.42-.03-.6-.15-.15-.17-.23-.36-.32-.6l-3.5-11.5-.1-.62c0-.24.1-.37.36-.37h1.47c.2 0 .37.04.57.15.17.18.25.37.3.6l2.5 9.96 2.38-9.93c0-.24.08-.44.28-.6.17-.12.37-.16.58-.14h1.2c.24-.02.4.02.6.14.17.18.25.36.3.6l2.33 9.94 2.56-10c.04-.2.16-.4.33-.58.15-.1.36-.17.56-.14h1.4c.16 0 .33.1.37.3v.31s0 .2-.12.35l-3.6 11.53c-.05.22-.13.42-.3.6-.2.1-.36.14-.57.13h-1.27c-.25.04-.46-.02-.62-.15-.16-.16-.25-.36-.3-.6l-2.3-9.6-2.28 9.6c-.05.24-.13.44-.3.6-.2.13-.4.2-.6.16zm19.2.38c-.82 0-1.5-.07-2.3-.25-.65-.13-1.15-.3-1.72-.6-.2-.1-.37-.23-.45-.42-.08-.14-.12-.28-.12-.43v-.75c0-.3.12-.46.32-.46h.3l.36.16c.58.23 1.03.4 1.6.5.62.14 1.15.2 1.8.2.8.05 1.5-.1 2.2-.5.48-.3.77-.8.72-1.4.05-.4-.12-.76-.37-1.04-.46-.4-.95-.65-1.52-.8l-2.18-.67c-.94-.26-1.72-.74-2.38-1.5-.5-.66-.74-1.36-.74-2.2 0-.58.12-1.07.4-1.6.3-.5.63-.88 1.08-1.2.5-.4.98-.62 1.6-.8.66-.17 1.2-.25 1.9-.24.32-.03.6-.03.97 0l1 .16.8.23.67.25c.16.1.28.22.45.38.08.15.12.3.12.5v.7c0 .3-.12.47-.37.47-.2-.03-.37-.08-.57-.18-.95-.43-1.8-.6-2.88-.58-.7-.04-1.3.1-1.97.4-.5.3-.74.8-.7 1.36 0 .4.13.76.46 1.05.5.4.98.65 1.6.82l2.1.67c.94.24 1.68.7 2.3 1.44.48.64.7 1.3.7 2.1 0 .63-.13 1.17-.38 1.73-.3.55-.62.95-1.1 1.32-.5.4-1 .66-1.6.84-.75.23-1.4.33-2.15.34zM-233.9 97.48c-5.6 3.82-11.36 5.58-18.15 5.56-8.54.05-15.82-2.74-22.16-8.45-.5-.42 0-1 .48-.68 7.07 4.05 14.03 5.9 22.2 5.9 6.1-.04 11.3-1.1 16.93-3.47.83-.35 1.52.55.7 1.14z" stroke="#fff" stroke-opacity="0" fill="#fff"/><path d="M-231.84 95.2c-.64-.8-4.16-.38-5.75-.2-.46 0-.53-.36-.1-.67 2.8-1.97 7.42-1.4 8-.73.6.67-.14 5.28-2.78 7.48-.4.34-.78.15-.6-.28.54-1.52 1.86-4.83 1.24-5.6z" stroke="#fff" stroke-opacity="0" fill="#fff"/><use xlink:href="#a" transform="matrix(1,0,0,1,-209,80) translate(0 21.52777777777778)"/><use xlink:href="#b" transform="matrix(1,0,0,1,-209,80) translate(91.92708333333331 21.52777777777778)"/><path d="M-180 640h120v120h-120V640z" stroke="#000" stroke-opacity="0" fill="#8c4fff"/><path d="M-97.32 718.14c0-2.43-2.02-4.45-4.54-4.45-2.43 0-4.45 2-4.45 4.44 0 2.52 2 4.54 4.44 4.54 2.52 0 4.54-2.02 4.54-4.54zm3.02 0c0 4.2-3.36 7.56-7.56 7.56-4.1 0-7.47-3.36-7.47-7.56 0-4.1 3.36-7.47 7.47-7.47 4.2 0 7.56 3.36 7.56 7.47zm-40.15-21.58c0-2.52-2-4.54-4.45-4.54-2.52 0-4.54 2.02-4.54 4.54 0 2.43 2.02 4.45 4.54 4.45 2.44 0 4.45-2 4.45-4.44zm3.03 0c0 4.1-3.36 7.47-7.48 7.47-4.12 0-7.48-3.36-7.48-7.47 0-4.12 3.36-7.56 7.48-7.56 4.12 0 7.48 3.44 7.48 7.56zm11-23.52c0 2.43 2.02 4.45 4.54 4.45 2.43 0 4.45-2.03 4.45-4.46 0-2.52-2.02-4.54-4.45-4.54-2.52 0-4.54 2.02-4.54 4.54zm-3.02 0c0-4.2 3.44-7.56 7.56-7.56 4.1 0 7.47 3.36 7.47 7.56 0 4.1-3.37 7.47-7.48 7.47-4.12 0-7.56-3.35-7.56-7.46zM-81.02 700c0-13.94-7.48-26.8-19.5-33.77-2.1.5-4.2 1.1-6.8 2.02l-1-2.86c1.34-.5 2.52-.85 3.7-1.18-4.8-2.1-10.1-3.2-15.38-3.2-2.52 0-5.04.26-7.48.76 1.77 1 3.36 2.02 4.88 3.2l-1.85 2.34c-2.1-1.6-4.37-2.94-7.23-4.53-14.78 4.6-25.36 17.63-27.04 32.92 3.1-.68 6.04-1 9.32-1.1l.08 3.03c-3.44.08-6.38.42-9.66 1.17V700c0 13.02 6.4 24.95 16.97 32.17-1.86-5.63-2.86-10.92-2.86-16.04 0-2.94.58-5.38 1.1-7.9.07-.67.24-1.26.32-1.85l2.94.6c-.08.58-.25 1.25-.33 1.84-.5 2.52-1 4.7-1 7.3 0 5.9 1.25 11.94 3.94 18.5 5.55 2.93 11.6 4.36 17.9 4.36 4.12 0 8.15-.68 12-1.94 1.52-2.94 2.62-5.8 3.62-8.98l2.86.84c-.67 2.35-1.5 4.45-2.44 6.63 2.44-1.1 4.7-2.43 6.9-4.03-.5-1.26-1.1-2.52-1.7-3.78l2.7-1.34c.5 1.1 1 2.18 1.43 3.2 8.65-7.4 13.6-18.07 13.6-29.58zm3.02 0c0 13.1-5.96 25.2-16.3 33.26-2.6 1.94-5.37 3.62-8.3 4.96-1.27.6-2.53 1.1-3.88 1.5-4.28 1.52-8.82 2.28-13.52 2.28-6.9 0-13.78-1.68-19.82-4.96-13.7-7.3-22.18-21.5-22.18-37.04 0-1 0-1.85.08-2.52 1-17.56 13.02-32.68 29.9-37.72 3.87-1.17 7.9-1.76 12.02-1.76 7.22 0 14.28 1.85 20.5 5.38C-86.23 670.78-78 684.8-78 700zm-46.03-21.84c-3.1 2.77-5.63 5.7-8.5 10.16l-2.5-1.6c3.02-4.7 5.7-7.9 9.07-10.74l1.93 2.18zm-4.54 19.5c7.3 2.5 13.7 6.46 20 12.5l-2.1 2.2c-5.97-5.72-12.02-9.5-18.9-11.86l1-2.85zM-108.5 680c5.64 8.58 8.74 17.98 9.42 27.98l-3.03.25c-.6-9.5-3.62-18.48-8.9-26.54l2.5-1.7z" stroke="#000" stroke-opacity="0" fill="#fff"/><use xlink:href="#c" transform="matrix(1,0,0,1,-210,769) translate(47.16145833333334 21.52777777777778)"/><use xlink:href="#d" transform="matrix(1,0,0,1,-210,769) translate(32.06271701388889 53.79340277777778)"/><path d="M300 640h120v120H300V640z" stroke="#000" stroke-opacity="0" fill="#8c4fff"/><path d="M351.1 723.44h4.36v-3.03h-4.36v3.04zm7.4 0H363v-3.03h-4.53v3.04zm-18-61.5l-19.48 9.67v60.15l19.5 6.64v-76.45zm3.04 19.16v39.3H348v3.04h-4.46v17.05c0 .5-.26.9-.68 1.25-.25.17-.58.25-.84.25-.16 0-.33 0-.5-.08l-22.5-7.65c-.6-.17-1.02-.75-1.02-1.43v-62.16c0-.58.34-1.1.84-1.34l22.5-11.17c.43-.25 1.02-.25 1.44.08.42.25.76.76.76 1.26v18.58H348v3.02h-4.46zm22.42 42.34h4.54v-3.03h-4.54v3.04zm.17-42.34h4.37v-3.02h-4.37v3.02zm-7.56 0h4.45v-3.02h-4.45v3.02zm-7.47 0h4.36v-3.02h-4.36v3.02zm47.88-9.5l-19.5-9.65v76.44l19.5-6.65V671.6zm3.02 61.24c0 .68-.42 1.26-1 1.43l-22.52 7.65c-.17.08-.34.08-.5.08-.26 0-.6-.08-.84-.25-.42-.34-.68-.76-.68-1.26v-17.06h-2.85v-3.03h2.86v-39.3h-2.85v-3.02h2.86V659.5c0-.5.34-1 .76-1.25.42-.33 1-.33 1.43-.08l22.5 11.17c.5.25.85.76.85 1.34v62.16zm-37.63-42.16l-2.77-1.1-7.48 19.74 2.77 1.1 7.47-19.74zm10.16 9.66c.6-.6.6-1.6 0-2.2l-5.96-6.04-2.1 2.2 4.87 4.94-4.87 4.96 2.1 2.18 5.96-6.04zm-23.1 6.04l-5.96-6.04c-.6-.6-.6-1.6 0-2.2l5.96-6.04 2.1 2.2-4.87 4.94 4.87 4.96-2.1 2.18z" stroke="#000" stroke-opacity="0" fill="#fff"/><use xlink:href="#a" transform="matrix(1,0,0,1,270,769) translate(26.290147569444457 21.52777777777778)"/><use xlink:href="#e" transform="matrix(1,0,0,1,270,769) translate(118.21723090277777 21.52777777777778)"/><use xlink:href="#f" transform="matrix(1,0,0,1,270,769) translate(44.25347222222222 53.79340277777778)"/><path d="M900 354.6c-30.12 0-54.6-24.48-54.6-54.6s24.48-54.6 54.6-54.6 54.6 24.48 54.6 54.6-24.48 54.6-54.6 54.6zm0-114.6c-33.12 0-60 26.88-60 60 0 33.12 26.88 60 60 60 33.12 0 60-26.88 60-60 0-33.12-26.88-60-60-60zm-18.48 90.72h-14.64l17.4-36.24 7.32 15-10.08 21.24zm5.16-43.8c-.48-.96-1.44-1.56-2.52-1.56-.96 0-1.92.6-2.4 1.56l-21.6 45.36c-.36.84-.36 1.8.12 2.64.48.72 1.44 1.2 2.28 1.2h20.76c.96 0 1.92-.6 2.4-1.56L897 310.68c.36-.72.36-1.56 0-2.4l-10.32-21.36zm46.44 43.8h-14.88l-27.12-58.08c-.36-.96-1.32-1.56-2.4-1.56h-9.84V259.8h19.68l26.88 58.08c.48.96 1.44 1.56 2.52 1.56h5.16v11.28zm2.64-16.8h-6.12l-26.88-57.96c-.48-1.08-1.44-1.68-2.4-1.68h-24.24c-1.44 0-2.64 1.2-2.64 2.76l-.12 16.68c0 .72.36 1.44.84 1.92.48.6 1.2.84 1.92.84h10.8l27.12 58.08c.36.96 1.32 1.56 2.4 1.56h19.32c1.56 0 2.76-1.2 2.76-2.76v-16.68c0-1.44-1.2-2.76-2.76-2.76z" stroke="#000" stroke-opacity="0" fill="#ed7100"/><use xlink:href="#g" transform="matrix(1,0,0,1,810,369) translate(47.89930555555556 21.52777777777778)"/><use xlink:href="#h" transform="matrix(1,0,0,1,810,369) translate(44.779730902777786 53.79340277777778)"/><path d="M900 794.6c-30.12 0-54.6-24.48-54.6-54.6s24.48-54.6 54.6-54.6 54.6 24.48 54.6 54.6-24.48 54.6-54.6 54.6zm0-114.6c-33.12 0-60 26.88-60 60 0 33.12 26.88 60 60 60 33.12 0 60-26.88 60-60 0-33.12-26.88-60-60-60zm-18.48 90.72h-14.64l17.4-36.24 7.32 15-10.08 21.24zm5.16-43.8c-.48-.96-1.44-1.56-2.52-1.56-.96 0-1.92.6-2.4 1.56l-21.6 45.36c-.36.84-.36 1.8.12 2.64.48.72 1.44 1.2 2.28 1.2h20.76c.96 0 1.92-.6 2.4-1.56L897 750.68c.36-.72.36-1.56 0-2.4l-10.32-21.36zm46.44 43.8h-14.88l-27.12-58.08c-.36-.96-1.32-1.56-2.4-1.56h-9.84V699.8h19.68l26.88 58.08c.48.96 1.44 1.56 2.52 1.56h5.16v11.28zm2.64-16.8h-6.12l-26.88-57.96c-.48-1.08-1.44-1.68-2.4-1.68h-24.24c-1.44 0-2.64 1.2-2.64 2.76l-.12 16.68c0 .72.36 1.44.84 1.92.48.6 1.2.84 1.92.84h10.8l27.12 58.08c.36.96 1.32 1.56 2.4 1.56h19.32c1.56 0 2.76-1.2 2.76-2.76v-16.68c0-1.44-1.2-2.76-2.76-2.76z" stroke="#000" stroke-opacity="0" fill="#ed7100"/><use xlink:href="#g" transform="matrix(1,0,0,1,810,809) translate(47.89930555555556 21.52777777777778)"/><use xlink:href="#h" transform="matrix(1,0,0,1,810,809) translate(44.779730902777786 53.79340277777778)"/><path d="M900 1194.6c-30.12 0-54.6-24.48-54.6-54.6s24.48-54.6 54.6-54.6 54.6 24.48 54.6 54.6-24.48 54.6-54.6 54.6zm0-114.6c-33.12 0-60 26.88-60 60 0 33.12 26.88 60 60 60 33.12 0 60-26.88 60-60 0-33.12-26.88-60-60-60zm-18.48 90.72h-14.64l17.4-36.24 7.32 15-10.08 21.24zm5.16-43.8c-.48-.96-1.44-1.56-2.52-1.56-.96 0-1.92.6-2.4 1.56l-21.6 45.36c-.36.84-.36 1.8.12 2.64.48.72 1.44 1.2 2.28 1.2h20.76c.96 0 1.92-.6 2.4-1.56l11.28-23.88c.36-.72.36-1.56 0-2.4l-10.32-21.36zm46.44 43.8h-14.88l-27.12-58.08c-.36-.96-1.32-1.56-2.4-1.56h-9.84v-11.28h19.68l26.88 58.08c.48.96 1.44 1.56 2.52 1.56h5.16v11.28zm2.64-16.8h-6.12l-26.88-57.96c-.48-1.08-1.44-1.68-2.4-1.68h-24.24c-1.44 0-2.64 1.2-2.64 2.76l-.12 16.68c0 .72.36 1.44.84 1.92.48.6 1.2.84 1.92.84h10.8l27.12 58.08c.36.96 1.32 1.56 2.4 1.56h19.32c1.56 0 2.76-1.2 2.76-2.76v-16.68c0-1.44-1.2-2.76-2.76-2.76z" stroke="#000" stroke-opacity="0" fill="#ed7100"/><use xlink:href="#g" transform="matrix(1,0,0,1,810,1209) translate(47.89930555555556 21.52777777777778)"/><use xlink:href="#h" transform="matrix(1,0,0,1,810,1209) translate(44.779730902777786 53.79340277777778)"/><path d="M953.16 484.5c0 2.24 1.8 4.03 4.08 4.03 1.56 0 2.76 1.23 2.76 2.8v43.57c0 1.56-1.2 2.8-2.76 2.8h-21.12v-5.5h9.96v-5.14h-9.96v-5.5h12.72c1.44 0 2.64 1.24 2.64 2.7v7.95h3.12v-38.63c-3.96-1.12-6.84-4.82-6.84-9.07 0-4.37 2.88-8.07 6.84-9.2v-5.8H845.4v5.8c3.96 1.13 6.84 4.83 6.84 9.2 0 4.25-2.88 7.95-6.84 9.18v38.53h3.12v-7.94c0-1.46 1.2-2.7 2.64-2.7h12.72v5.5h-9.96v5.15h9.96v5.5h-21.12c-1.56 0-2.76-1.24-2.76-2.8v-43.57c0-1.57 1.2-2.8 2.76-2.8 2.28 0 4.08-1.8 4.08-4.03 0-2.24-1.8-4.15-4.08-4.15-1.56 0-2.76-1.23-2.76-2.7V466.7c0-1.47 1.2-2.7 2.76-2.7h114.48c1.56 0 2.76 1.23 2.76 2.7v10.96c0 1.46-1.2 2.7-2.76 2.7-2.28 0-4.08 1.9-4.08 4.14zm-52.68 59.02h-5.64v-10.75h5.76c3.6 0 5.4 1.8 5.4 5.37 0 3.6-1.8 5.38-5.52 5.38zm9.72 0c.96-1.57 1.56-3.36 1.56-5.5 0-3-.96-5.25-2.88-7.04-1.92-1.68-4.44-2.58-7.68-2.58h-12v32.48h5.64V548h5.76l7.56 12.88h5.64l-8.4-13.9c2.16-.77 3.72-2 4.8-3.46zm-47.76-32.6h3.6v5.38h-6.36c-1.44 0-2.76-1.23-2.76-2.68v-36.18c0-1.57 1.32-2.8 2.76-2.8h12.72c1.56 0 2.76 1.23 2.76 2.8v17.02h-5.4v-14.33h-7.32v30.8zm75.12 0v-30.8h-7.2v14.34h-5.52v-17.02c0-1.57 1.2-2.8 2.76-2.8h12.72c1.44 0 2.76 1.23 2.76 2.8v36.18c0 1.45-1.32 2.68-2.76 2.68h-4.2v-5.37h1.44zm-21.24-18.58v-12.2h-9.36v10.07h-5.4v-12.76c0-1.57 1.2-2.8 2.64-2.8h14.88c1.56 0 2.76 1.23 2.76 2.8v14.9h-5.52zm-23.28-2.13v-10.07h-9.36v12.2h-5.52v-14.9c0-1.56 1.2-2.8 2.76-2.8h14.88c1.44 0 2.64 1.24 2.64 2.8v12.78h-5.4zm28.08 46.04c2.4-.78 4.32-1.68 5.88-2.58v11.76c0 .9-2.04 2.92-7.56 4.7l1.68 5.27c2.4-.8 4.32-1.7 5.88-2.58v10.52c0 2.47-10.32 7.17-27 7.17s-27-4.7-27-7.16v-10.52c1.56.9 3.48 1.8 6 2.57l1.68-5.27c-5.64-1.68-7.68-3.8-7.68-4.7v-11.77c1.56.9 3.48 1.8 6 2.58l1.68-5.26c-5.64-1.8-7.68-3.8-7.68-4.7V514.5c6.24 3.6 16.68 5.28 26.76 5.28 10.44 0 21-1.9 27.24-5.5v12c0 .9-2.04 2.9-7.56 4.7l1.68 5.26zm-21.36-36.62c16.8 0 27.12 4.7 27.12 7.4 0 2.56-10.32 7.27-27.12 7.27-17.28 0-26.64-4.83-26.64-7.3 0-2.57 9.36-7.38 26.64-7.38zm32.64 7.4c0-8.4-16.44-12.9-32.64-12.9-15.48 0-32.16 4.04-32.16 12.9v56.32c0 8.3 16.32 12.66 32.4 12.66s32.4-4.37 32.4-12.66V507z" stroke="#000" stroke-opacity="0" fill="#c925d1"/><use xlink:href="#i" transform="matrix(1,0,0,1,810,585) translate(8.202039930555557 21.52777777777778)"/><use xlink:href="#j" transform="matrix(1,0,0,1,810,585) translate(72.10177951388889 21.52777777777778)"/><use xlink:href="#k" transform="matrix(1,0,0,1,810,585) translate(142.53363715277777 21.52777777777778)"/><use xlink:href="#l" transform="matrix(1,0,0,1,810,585) translate(5.006510416666671 53.79340277777778)"/><use xlink:href="#m" transform="matrix(1,0,0,1,810,585) translate(104.71354166666666 53.79340277777778)"/><path d="M1422.04 762.64c-2.04-3.55-2.04-7.94 0-11.5l26.03-45.4c2.04-3.54 5.8-5.74 9.88-5.74h52.1c4.08 0 7.83 2.2 9.88 5.75l26.03 45.4c2.04 3.55 2.04 7.94 0 11.5l-26.03 45.4c-2.04 3.54-5.8 5.74-9.88 5.74h-52.1c-4.08 0-7.84-2.2-9.88-5.76zm0 0" fill="#0e62c2"/><path d="M1503.12 813.8l-34.42-33.93-11.25-26.97 12.85-20.5 6.43 1.58 8.04-1.58 14.45-1.6 41.02 41.82-20.3 35.42c-2.05 3.55-5.8 5.75-9.9 5.75zm0 0" fill="#0851b0"/><path d="M1490.1 755.76c0-3.25-2.68-5.86-5.98-5.86-3.32 0-6 2.6-6 5.86 0 3.24 2.68 5.86 6 5.86 3.3 0 6-2.62 6-5.86z" fill="#fff"/><path d="M1506.1 741.6l-5.3-9c-.97-1.64-2.73-2.56-4.55-2.56H1472c-1.95 0-3.65 1.04-4.56 2.57l-6.83 11.58 6.08 10.3 8.33-14.15h28.83c.9 0 1.8.46 2.28 1.28H1494l8.34 14.13-9.12 15.46-5.3 8.96c-.44.77-1.3 1.3-2.26 1.3l6.05-10.27H1475l-8.37-14.25-.7-1.2-5.32-9c-.43-.76-.46-1.74 0-2.55l-5.3 8.98c-.97 1.66-.9 3.6 0 5.15l12.14 20.57c.97 1.65 2.72 2.57 4.54 2.57h13.66c.1 0 .2 0 .3-.02h10.3c1.95 0 3.64-1.04 4.55-2.57l12.13-20.57c.97-1.64.9-3.6 0-5.14zm0 0" fill="#fff"/><use xlink:href="#n" transform="matrix(1,0,0,1,1420,818.79) translate(2.3284667968750057 15.530273437500002)"/><use xlink:href="#o" transform="matrix(1,0,0,1,1420,818.79) translate(59.291875000000005 15.530273437500002)"/><use xlink:href="#p" transform="matrix(1,0,0,1,1420,818.79) translate(50.9831787109375 35.14746093750001)"/><path d="M-118 145.42l57.98 8.62v5.1c0 7.53-25.98 13.63-58 13.63-32 0-57.98-6.1-57.98-13.65v-5.52z" fill="#8c3123"/><path d="M-117.98 182.13c24.2 0 44.93-3.53 53.58-8.5l2.88-4.78 1.15-4.4v5.45l-19 81c0 5.08-17.3 9.1-38.6 9.1-21.33 0-38.6-4.02-38.6-9.1l-19.02-81v-5.35l4.38 9.27c8.76 4.87 29.27 8.3 53.24 8.3z" fill="#8c3123"/><path d="M-118 140c32 0 58 6.12 58 13.62 0 7.5-26 13.57-58 13.57s-58-6.02-58-13.58c0-7.56 26-13.62 58-13.62z" fill="#e05243"/><path d="M-118 176.6c29.84 0 54.4-5.2 57.62-12.06l-19.02 81c0 5.05-17.28 9.1-38.6 9.1-21.33 0-38.6-4.05-38.6-9.1l-19.03-81c3.23 6.85 27.78 12.07 57.62 12.07z" fill="#e05243"/><path d="M-131.65 184.38h25.1v24.96h-25.1v-24.96zM-139.25 218.17c6.84 0 12.4 5.5 12.4 12.3 0 6.8-5.56 12.3-12.4 12.3-6.83 0-12.38-5.5-12.38-12.3 0-6.8 5.55-12.3 12.38-12.3zM-87.2 242.2H-112l12.4-22.94 12.4 22.94z" fill="#fff"/><use xlink:href="#q" transform="matrix(1,0,0,1,-176,260) translate(9.936848958333329 21.52777777777778)"/><use xlink:href="#r" transform="matrix(1,0,0,1,-176,260) translate(63.517578125 21.52777777777778)"/><use xlink:href="#s" transform="matrix(1,0,0,1,-176,260) translate(22.735243055555557 53.79340277777778)"/><path d="M1100 580h120v120h-120V580z" stroke="#fff" stroke-opacity="0" stroke-width="2" fill="#3b48cc"/><path d="M1180.4 644.78l-10.6 10.55c2-.56 3.65-1.2 5.5-2.24 1.1.63 1.68 1.67 1.9 2.87 0 2.96-6.2 6.16-15.4 7.43-3.05.4-5.55.57-8.6.57h-1.58c-12.95-.25-22.42-4.32-22.42-8 .17-1.2.82-2.16 1.9-2.88 5.02 2.8 13.18 4.47 22.1 4.47h.17l.92-3.2h-1.1c-8.8 0-16.98-1.76-21.28-4.47-1.74-1.12-2.72-2.4-2.72-3.44v-7.44c4.9 3.76 14.64 5.68 24 5.68 1.25 0 2.5 0 3.76-.08l.92-3.2c-1.63.08-3.1.16-4.68.16-13.7 0-24-4.23-24-8 .17-1.27.82-2.23 1.9-2.87 4.42 2.5 11.22 4 18.9 4.4l.1-3.2c-7.56-.4-14.42-2-18.18-4.47-1.74-1.03-2.66-2.3-2.72-3.43v-7.36c4.9 3.76 14.64 5.68 24 5.68h.33l1.74-3.2h-2.07c-13.7 0-24-4.16-24-8 0-3.75 10.3-8 24-8 4.85 0 8.98.5 13.72 1.6h8.8c-4.83-2.95-13.1-4.78-22.52-4.78-13.17 0-27.2 3.9-27.2 11.2V624c.1 1.9.92 3.5 2.44 4.7-1.52 1.3-2.34 2.9-2.45 4.8v12.8c.1 2 .92 3.6 2.44 4.88-1.52 1.2-2.34 2.8-2.45 4.8v13.1c.43 7.03 14.2 10.8 27.2 10.8s26.78-3.76 27.2-10.88V655.88c-.04-1.9-.9-3.6-2.44-4.78 1.53-1.2 2.34-2.88 2.45-4.8zm-3.2 23.98c0 3.76-10.28 8-24 8-13.7 0-24-4.16-24-8v-7.35c4.9 3.68 14.64 5.68 24 5.68s19.1-2 24-5.67z" stroke="#fff" stroke-opacity="0" stroke-width="2" fill="#fff"/><path d="M1136 624.03c0 1.1-.9 2-2 2s-2-.9-2-2 .9-2 2-2 2 .9 2 2zM1136 646.43c0 1.1-.9 2-2 2s-2-.9-2-2 .9-2 2-2 2 .9 2 2zM1136 668.83c0 1.1-.9 2-2 2s-2-.9-2-2 .9-2 2-2 2 .9 2 2zM1157.2 662.37c-.3 0-.53-.06-.82-.22-.64-.38-.92-1.14-.72-1.85l8.98-29.95h-9.06c-.88.06-1.6-.65-1.6-1.58 0-.27.04-.54.2-.76l9.58-19.2c.28-.55.8-.88 1.45-.88h20.82c.88-.06 1.6.65 1.64 1.52.04.22 0 .38-.04.6l-4.13 12.25h8.97c.88.05 1.6.75 1.6 1.63 0 .43-.16.76-.44 1.1l-35.2 36.8c-.32.38-.72.54-1.24.54zm1-35.18h8.6c.53 0 .97.2 1.3.6.27.43.4.92.23 1.4l-7.7 25.6 28.03-29.24h-7.46c-.88 0-1.64-.65-1.68-1.52 0-.22 0-.44.08-.6l4.1-12.3h-17.6z" stroke="#fff" stroke-opacity="0" stroke-width="2" fill="#fff"/><use xlink:href="#c" transform="matrix(1,0,0,1,1070,709) translate(47.16145833333334 21.52777777777778)"/><use xlink:href="#t" transform="matrix(1,0,0,1,1070,709) translate(31.248914930555564 53.79340277777778)"/><path d="M-100 960H20v120h-120V960z" stroke="#000" stroke-opacity="0" fill="#e7157b"/><path d="M-17.4 1030.14c0-5.93-4.8-10.65-10.76-10.65-5.88 0-10.66 4.7-10.66 10.64 0 5.85 4.78 10.57 10.66 10.57 5.97 0 10.76-4.7 10.76-10.56m3.02 0c0 7.5-6.13 13.57-13.78 13.57-7.56 0-13.7-6.06-13.7-13.56 0-7.58 6.14-13.65 13.7-13.65 7.65 0 13.78 6.07 13.78 13.64m12.68 20.47l-10.58-9.36c-.84 1.2-1.76 2.25-2.86 3.22l10.5 9.45c.84.76 2.27.7 3.03-.13.83-.9.74-2.33-.1-3.15m-26.46-4.2c9.08 0 16.47-7.28 16.47-16.28s-7.38-16.35-16.46-16.35c-8.98 0-16.38 7.34-16.38 16.34s7.4 16.27 16.38 16.27m28.82 9.3c-1 1.14-2.44 1.74-3.87 1.74-1.27 0-2.53-.45-3.45-1.35l-10.92-9.76c-3.1 1.95-6.64 3.08-10.6 3.08-10.65 0-19.4-8.63-19.4-19.28 0-10.73 8.75-19.35 19.4-19.35 10.77 0 19.5 8.62 19.5 19.34 0 3-.75 5.92-2 8.47l11 9.84c2.1 1.88 2.26 5.17.33 7.27m-68.72-51.66c0 .75 0 1.58.1 2.33.07.37-.1.82-.35 1.12-.26.3-.5.44-.85.5-3.7.9-9.83 3.84-9.83 12.47 0 6.52 3.62 10.12 6.64 12 1.1.6 2.27.97 3.6.97l18.16.08v2.92H-68.8c-1.86 0-3.62-.53-5.14-1.42-3.02-1.88-8.06-6.23-8.06-14.55 0-10.06 6.9-13.73 10.92-15.08v-1.36c0-8.17 5.54-16.72 13.02-19.8 8.65-3.6 17.8-1.8 24.53 4.8 2.1 2.03 3.78 4.58 5.12 7.43 1.76-1.43 3.94-2.25 6.2-2.25 4.54 0 9.58 3.37 10.5 10.8 4.2.97 13.1 4.35 13.1 15.52 0 4.5-1.42 8.17-4.2 11.03l-2.1-2.1c2.2-2.26 3.3-5.26 3.3-8.93 0-9.75-8.24-12.22-11.77-12.82-.42 0-.76-.23-1-.6-.26-.3-.35-.75-.26-1.13-.5-6.1-4.12-8.78-7.56-8.78-2.1 0-4.1 1.04-5.54 2.85-.33.44-.84.67-1.42.6-.5-.08-1-.45-1.18-.98-1.26-3.38-3.02-6.3-5.3-8.5-5.8-5.76-13.77-7.26-21.24-4.2-6.3 2.64-11.18 10.07-11.18 17.04" stroke="#000" stroke-opacity="0" fill="#fff"/><use xlink:href="#c" transform="matrix(1,0,0,1,-130,1089) translate(47.16145833333334 21.52777777777778)"/><use xlink:href="#u" transform="matrix(1,0,0,1,-130,1089) translate(8.332248263888886 53.79340277777778)"/><use xlink:href="#k" transform="matrix(1,0,0,1,-130,1089) translate(142.40342881944446 53.79340277777778)"/><use xlink:href="#v" transform="matrix(1,0,0,1,-130,1089) translate(53.519965277777786 86.05902777777777)"/><use xlink:href="#w" transform="matrix(1,0,0,1,-130,1089) translate(21.575520833333343 118.32465277777777)"/><use xlink:href="#x" transform="matrix(1,0,0,1,-130,1089) translate(71.89019097222223 118.32465277777777)"/><use xlink:href="#y" transform="matrix(1,0,0,1,-130,1089) translate(99.68967013888889 118.32465277777777)"/><use xlink:href="#z" transform="matrix(1,0,0,1,-130,1089) translate(9.026692708333329 150.59027777777777)"/><use xlink:href="#A" transform="matrix(1,0,0,1,-130,1089) translate(46.85221354166667 182.85590277777777)"/><path d="M-527.4 659.92c0-8.04 6.6-14.52 14.76-14.52 8.04 0 14.64 6.48 14.64 14.52 0 7.92-6.6 14.4-14.64 14.4-8.16 0-14.76-6.48-14.76-14.4zm31.44 19.2c-1.68-1.08-3.6-2.04-5.52-2.76 5.4-3.6 8.88-9.6 8.88-16.44 0-11.04-9-19.92-20.04-19.92-11.16 0-20.16 8.88-20.16 19.92 0 6.84 3.48 12.84 8.88 16.44-3.48 1.32-6.72 3.24-9.72 5.76l3.6 4.08c4.92-4.2 11.04-6.48 17.28-6.48 4.92 0 9.72 1.44 13.92 3.96 7.56 4.68 12.48 12.84 13.2 21.72h-27.12v5.52h30c1.56 0 2.76-1.2 2.76-2.76 0-11.88-6.12-22.92-15.96-29.04zm-85.92-19.2c0-8.04 6.6-14.52 14.64-14.52 8.16 0 14.64 6.48 14.64 14.52 0 7.92-6.48 14.4-14.64 14.4-8.04 0-14.64-6.48-14.64-14.4zm14.64 45.48h-27.12c1.32-14.4 12.96-25.68 27.12-25.68 4.92 0 9.72 1.44 13.92 3.96 1.2.84 2.28 1.56 3.36 2.52l3.6-4.08c-1.32-1.2-2.64-2.16-4.08-3-1.8-1.08-3.6-2.04-5.52-2.76 5.28-3.6 8.88-9.6 8.88-16.44 0-11.04-9-19.92-20.16-19.92-11.04 0-20.16 8.88-20.16 19.92 0 6.84 3.6 12.84 9 16.44-12.6 4.8-21.6 17.16-21.6 31.8 0 1.56 1.2 2.76 2.76 2.76h30v-5.52zm.12 49.2c1.32-14.52 12.96-25.8 27.12-25.8 4.92 0 9.72 1.44 13.92 3.96 7.44 4.68 12.36 12.84 13.2 21.84h-54.24zm12.48-45.6c0-8.04 6.6-14.4 14.64-14.4 8.16 0 14.76 6.36 14.76 14.4 0 7.92-6.6 14.4-14.76 14.4-8.04 0-14.64-6.48-14.64-14.4zm31.44 19.2c-1.8-1.08-3.6-2.04-5.52-2.76 5.4-3.6 8.88-9.6 8.88-16.44 0-11.04-9-19.92-20.16-19.92-11.04 0-20.04 8.88-20.04 19.92 0 6.84 3.48 12.84 8.88 16.44-12.6 4.8-21.6 17.16-21.6 31.8 0 1.56 1.2 2.76 2.76 2.76h60c1.56 0 2.76-1.2 2.76-2.76 0-11.76-6.12-22.92-15.96-29.04z" stroke="#000" stroke-opacity="0" fill="#232f3e"/><use xlink:href="#B" transform="matrix(1,0,0,1,-630,769) translate(59.34136284722223 21.52777777777778)"/><path d="M58 380h120v120H58V380z" stroke="#fff" stroke-opacity="0" fill="#d6242d"/><path d="M146 404H84.37c-3.46.16-6.1 3.12-5.97 6.55v39.7c-.15 3.44 2.5 6.4 5.96 6.55h34.03v-3.22H84.35c-1.7-.2-2.87-1.7-2.73-3.33v-27.03h28.8v23.97c0 .9.67 1.57 1.55 1.57h12.82v-3.16h-10.46v-.47c0-5.6 3.46-10.3 8.84-11.88 2.58 1.16 5.23 1.16 7.88 0 3.02.9 5.38 2.7 7.07 5.44l2.73-1.6c-1.77-2.8-3.98-4.75-7-6.12 1.4-1.64 2.06-3.43 2.06-5.54 0-4.86-3.97-8.82-8.84-8.82-4.78 0-8.76 3.96-8.76 8.82.07 2.06.73 3.85 2.06 5.44-2.87 1.26-5 3.1-6.7 5.8v-21.5h27.18v22.41h3.17v-14.36h4.78v16h3.25v-28.67-.06c.15-3.5-2.57-6.4-6.04-6.5zm-18.92 15.8c3.1 0 5.6 2.47 5.67 5.53-.07 2.06-1.1 3.8-2.94 4.8-1.76.96-3.67.96-5.37 0-1.84-1-2.87-2.74-2.95-4.8.08-3.06 2.58-5.54 5.6-5.54zm16.95.2v-6.4c0-.9-.74-1.57-1.63-1.57h-30.42c-.88 0-1.54.68-1.54 1.58v6.4h-28.8v-9.45c-.15-1.64 1.03-3.12 2.72-3.33H146c1.63.2 2.9 1.64 2.74 3.33V420z" stroke="#fff" stroke-opacity="0" fill="#fff"/><path d="M84.83 431.12h17.57v3.2H84.83v-3.2zM84.83 439.12H96v3.2H84.83v-3.2zM99.23 439.12H104v3.2h-4.77v-3.2zM141.4 476.08c-8.9.03-16.2-7.15-16.23-16.1-.03-8.94 7.16-16.22 16.1-16.25.76 0 1.37.03 2.12.13 8.84 1.1 15.16 9.2 14.06 18.05-.4 3.3-1.6 6-3.73 8.52-1.6 1.8-3.24 3.07-5.42 4.14-2.26 1.04-4.36 1.52-6.9 1.52zm0-29.15c-2.13 0-3.98.45-5.9 1.42-6.18 3.24-8.7 10.68-5.76 17.02 3 6.5 10.73 9.32 17.25 6.28 1.74-.84 3.06-1.85 4.3-3.3 1.75-2.04 2.72-4.24 3.04-6.9.85-7.1-4.2-13.55-11.34-14.42-.55-.07-1.04-.1-1.62-.1z" stroke="#fff" stroke-opacity="0" fill="#fff"/><path d="M138.88 466.72c-.44 0-.8-.16-1.13-.47l-5.17-5.16 2.22-2.27 4.02 4.03 9.13-9.13 2.27 2.27-10.27 10.25c-.3.3-.65.46-1.07.47z" stroke="#fff" stroke-opacity="0" fill="#fff"/><use xlink:href="#a" transform="matrix(1,0,0,1,28,509) translate(2.999131944444457 21.52777777777778)"/><use xlink:href="#C" transform="matrix(1,0,0,1,28,509) translate(94.92621527777777 21.52777777777778)"/><path d="M-120 494.6c-30.12 0-54.6-24.48-54.6-54.6s24.48-54.6 54.6-54.6 54.6 24.48 54.6 54.6-24.48 54.6-54.6 54.6zm0-114.6c-33.12 0-60 26.88-60 60 0 33.12 26.88 60 60 60 33.12 0 60-26.88 60-60 0-33.12-26.88-60-60-60zm-18.48 90.72h-14.64l17.4-36.24 7.32 15-10.08 21.24zm5.16-43.8c-.48-.96-1.44-1.56-2.52-1.56-.96 0-1.92.6-2.4 1.56l-21.6 45.36c-.36.84-.36 1.8.12 2.64.48.72 1.44 1.2 2.28 1.2h20.76c.96 0 1.92-.6 2.4-1.56l11.28-23.88c.36-.72.36-1.56 0-2.4l-10.32-21.36zm46.44 43.8h-14.88l-27.12-58.08c-.36-.96-1.32-1.56-2.4-1.56h-9.84V399.8h19.68l26.88 58.08c.48.96 1.44 1.56 2.52 1.56h5.16v11.28zm2.64-16.8h-6.12l-26.88-57.96c-.48-1.08-1.44-1.68-2.4-1.68h-24.24c-1.44 0-2.64 1.2-2.64 2.76l-.12 16.68c0 .72.36 1.44.84 1.92.48.6 1.2.84 1.92.84h10.8l27.12 58.08c.36.96 1.32 1.56 2.4 1.56h19.32c1.56 0 2.76-1.2 2.76-2.76v-16.68c0-1.44-1.2-2.76-2.76-2.76z" stroke="#000" stroke-opacity="0" fill="#ed7100"/><use xlink:href="#D" transform="matrix(1,0,0,1,-210,509) translate(7.0138888888889 21.52777777777778)"/><use xlink:href="#E" transform="matrix(1,0,0,1,-210,509) translate(72.85590277777779 21.52777777777778)"/><use xlink:href="#F" transform="matrix(1,0,0,1,-210,509) translate(147.92100694444446 21.52777777777778)"/><use xlink:href="#G" transform="matrix(1,0,0,1,-210,509) translate(68.72721354166667 53.79340277777778)"/><path d="M-117.53 319v.22l-.07.23-.08.2-.13.2-.16.2-.17.14-.2.1-.2.1-.24.05-.2.02h-.1l-.1.03-.07.03-.07.04-.07.05-.05.07-.05.06-.03.07-.02.08v58.6h-.95v-58.74l.07-.22.08-.22.13-.2.16-.17.17-.15.2-.12.2-.1.24-.04.2-.02h.1l.1-.03.07-.04.07-.04.07-.06.05-.06.05-.07.03-.08.02-.07V316.27h.95z" stroke="#3a414a" stroke-width=".05" fill="#3a414a"/><path d="M-119.53 380.02l-.47-.02-.47.02v-.53h.94z" fill="#3a414a"/><path stroke="#3a414a" stroke-width=".05" fill="#3a414a"/><path d="M-117.55 263h-.9l.45-1.4z" fill="#3a414a"/><path d="M-117.05 263h-1.9l.95-2.93zM62.4 700.48H-59.5v-.96H62.4zm221.22 0H177.6v-.96h106.02z" stroke="#3a414a" stroke-width=".05" fill="#3a414a"/><path d="M-59.5 700.48h-.5v-.96h.5z" fill="#3a414a"/><path stroke="#3a414a" stroke-width=".05" fill="#3a414a"/><path d="M298.38 700l-14.26 4.63v-9.26z" fill="#3a414a"/><path d="M299.92 700l-16.28 5.3v-10.6zm-15.33 3.98l12.25-3.98-12.26-3.98z" stroke="#3a414a" stroke-width=".05" fill="#3a414a"/><use xlink:href="#H" transform="matrix(1,0,0,1,62.4001736111111,689.2447916666666) translate(0 17.22222222222222)"/><use xlink:href="#I" transform="matrix(1,0,0,1,62.4001736111111,689.2447916666666) translate(33.99305555555556 17.22222222222222)"/><path d="M-59.5 440H41.62" stroke="#3a414a" fill="none"/><path d="M-59.5 440.48H-60l.02-.48-.02-.48h.53z" stroke="#3a414a" stroke-width=".05" fill="#3a414a"/><path d="M56.38 440l-14.26 4.63v-9.26z" stroke="#3a414a" fill="#3a414a"/><path d="M-119.53 639.5h-.94v-70.23h.94z" stroke="#3a414a" stroke-width=".05" fill="#3a414a"/><path d="M-119.53 640h-.94v-.5h.94z" fill="#3a414a"/><path stroke="#3a414a" stroke-width=".05" fill="#3a414a"/><path d="M-116.63 512h-6.74l3.37-10.38z" fill="#3a414a"/><path d="M-116.13 512h-1l-2.87-8.84-2.87 8.84h-1l3.87-11.92zM-358.5 700.48h-121v-.96h121zm162.12 0h-105.1v-.96h105.1z" stroke="#3a414a" stroke-width=".05" fill="#3a414a"/><path d="M-479.5 700.48h-1.48l-.25-.96h1.74z" fill="#3a414a"/><path stroke="#3a414a" stroke-width=".05" fill="#3a414a"/><path d="M-181.62 700l-14.26 4.63v-9.26z" fill="#3a414a"/><path d="M-180.08 700l-16.28 5.3v-10.6zm-15.33 3.98l12.25-3.98-12.26-3.98z" stroke="#3a414a" stroke-width=".05" fill="#3a414a"/><use xlink:href="#J" transform="matrix(1,0,0,1,-358.50694444444446,689.2447916666666) translate(0 17.22222222222222)"/><path d="M604.84 240L640 275.16v49.68L604.84 360h-49.68L520 324.84v-49.68L555.16 240zm29.76 82.56v-45.12l-32.04-32.04h-45.12l-32.04 32.04v45.12l32.04 32.04h45.12zm-73.56-63.72c.6-.24 3-.84 4.68 0l1.44.84v81l-1.44.84c-.6.36-1.32.48-2.04.48-1.2 0-2.28-.36-2.64-.48l-.36-.24-20.4-17.88c-1.32-.72-2.04-2.04-2.04-3.48v-39.48c0-1.44.72-2.76 2.04-3.48l20.4-17.88zm37.92 0l.36.24 20.4 17.88c1.32.72 2.04 2.04 2.04 3.48v39.48c0 1.44-.72 2.76-2.04 3.48l-20.4 17.88-.36.24c-.36.12-1.44.48-2.64.48-.72 0-1.44-.12-2.04-.48l-1.44-.84v-81l1.44-.84c1.68-.84 4.08-.24 4.68 0zm-37.32 76.08v-69.48l-18 15.84v37.8zm54.72-15.84v-37.8l-18-15.84v69.48zm-46.8-16.44v-5.28h5.28v5.28zm7.8 0v-5.28h5.28v5.28zm7.8 0v-5.28h5.28v5.28z" stroke="#000" stroke-opacity="0" fill="#b0084d"/><use xlink:href="#K" transform="matrix(1,0,0,1,490,369) translate(67.85915798611111 21.52777777777778)"/><use xlink:href="#L" transform="matrix(1,0,0,1,490,369) translate(6.097005208333329 53.79340277777778)"/><use xlink:href="#M" transform="matrix(1,0,0,1,490,369) translate(43.59700520833335 86.05902777777777)"/><path d="M950 938c0 27.6-22.4 50-50 50s-50-22.4-50-50 22.4-50 50-50 50 22.4 50 50z" stroke="#000" stroke-opacity="0" fill="#62b7ed"/><path d="M877.5 930.5c4.14 0 7.5 3.38 7.5 7.5 0 4.13-3.36 7.5-7.5 7.5-4.14 0-7.5-3.38-7.5-7.5 0-4.13 3.36-7.5 7.5-7.5zm22.5 0c4.14 0 7.5 3.38 7.5 7.5 0 4.13-3.36 7.5-7.5 7.5-4.14 0-7.5-3.38-7.5-7.5 0-4.13 3.36-7.5 7.5-7.5zm30 7.5c0-4.13-3.36-7.5-7.5-7.5-4.14 0-7.5 3.38-7.5 7.5 0 4.13 3.36 7.5 7.5 7.5 4.14 0 7.5-3.38 7.5-7.5z" stroke="#000" stroke-opacity="0" fill="#fff"/><path d="M640.5 300h183.12" stroke="#3a414a" fill="none"/><path d="M640.5 300.48h-.5v-.96h.5z" stroke="#3a414a" stroke-width=".05" fill="#3a414a"/><path d="M838.38 300l-14.26 4.63v-9.26z" stroke="#3a414a" fill="#3a414a"/><path d="M604.84 680L640 715.16v49.68L604.84 800h-49.68L520 764.84v-49.68L555.16 680zm29.76 82.56v-45.12l-32.04-32.04h-45.12l-32.04 32.04v45.12l32.04 32.04h45.12zm-73.56-63.72c.6-.24 3-.84 4.68 0l1.44.84v81l-1.44.84c-.6.36-1.32.48-2.04.48-1.2 0-2.28-.36-2.64-.48l-.36-.24-20.4-17.88c-1.32-.72-2.04-2.04-2.04-3.48v-39.48c0-1.44.72-2.76 2.04-3.48l20.4-17.88zm37.92 0l.36.24 20.4 17.88c1.32.72 2.04 2.04 2.04 3.48v39.48c0 1.44-.72 2.76-2.04 3.48l-20.4 17.88-.36.24c-.36.12-1.44.48-2.64.48-.72 0-1.44-.12-2.04-.48l-1.44-.84v-81l1.44-.84c1.68-.84 4.08-.24 4.68 0zm-37.32 76.08v-69.48l-18 15.84v37.8zm54.72-15.84v-37.8l-18-15.84v69.48zm-46.8-16.44v-5.28h5.28v5.28zm7.8 0v-5.28h5.28v5.28zm7.8 0v-5.28h5.28v5.28z" stroke="#000" stroke-opacity="0" fill="#b0084d"/><use xlink:href="#K" transform="matrix(1,0,0,1,490,809) translate(67.85915798611111 21.52777777777778)"/><use xlink:href="#N" transform="matrix(1,0,0,1,490,809) translate(-28.337673611111114 53.79340277777778)"/><path d="M604.84 1080l35.16 35.16v49.68L604.84 1200h-49.68L520 1164.84v-49.68l35.16-35.16zm29.76 82.56v-45.12l-32.04-32.04h-45.12l-32.04 32.04v45.12l32.04 32.04h45.12zm-73.56-63.72c.6-.24 3-.84 4.68 0l1.44.84v81l-1.44.84c-.6.36-1.32.48-2.04.48-1.2 0-2.28-.36-2.64-.48l-.36-.24-20.4-17.88c-1.32-.72-2.04-2.04-2.04-3.48v-39.48c0-1.44.72-2.76 2.04-3.48l20.4-17.88zm37.92 0l.36.24 20.4 17.88c1.32.72 2.04 2.04 2.04 3.48v39.48c0 1.44-.72 2.76-2.04 3.48l-20.4 17.88-.36.24c-.36.12-1.44.48-2.64.48-.72 0-1.44-.12-2.04-.48l-1.44-.84v-81l1.44-.84c1.68-.84 4.08-.24 4.68 0zm-37.32 76.08v-69.48l-18 15.84v37.8zm54.72-15.84v-37.8l-18-15.84v69.48zm-46.8-16.44v-5.28h5.28v5.28zm7.8 0v-5.28h5.28v5.28zm7.8 0v-5.28h5.28v5.28z" stroke="#000" stroke-opacity="0" fill="#b0084d"/><use xlink:href="#O" transform="matrix(1,0,0,1,490,1209) translate(60.10633680555556 21.52777777777778)"/><use xlink:href="#P" transform="matrix(1,0,0,1,490,1209) translate(-118.544921875 53.79340277777778)"/><path d="M503.62 300.48h-137.6l-.88.06-.85.2-.8.34-.75.45-.66.56-.57.65-.45.74-.33.8-.2.84-.07.88V639.5h-.96V305.98l.08-1 .24-.98.4-.94.52-.87.66-.78.77-.66.86-.53.94-.4 1-.23.98-.08h137.64z" stroke="#3a414a" stroke-width=".05" fill="#3a414a"/><path d="M360.48 640h-.96v-.5h.96z" fill="#3a414a"/><path stroke="#3a414a" stroke-width=".05" fill="#3a414a"/><path d="M518.38 300l-14.26 4.63v-9.26z" fill="#3a414a"/><path d="M519.92 300l-16.28 5.3v-10.6zm-15.33 3.98l12.25-3.98-12.26-3.98z" stroke="#3a414a" stroke-width=".05" fill="#3a414a"/><path d="M420.5 700H464a6 6 0 0 1 6 6v28a6 6 0 0 0 6 6h27.62" stroke="#3a414a" fill="none"/><path d="M420.5 700.48h-.5v-.96h.5z" stroke="#3a414a" stroke-width=".05" fill="#3a414a"/><path d="M518.38 740l-14.26 4.63v-9.26z" stroke="#3a414a" fill="#3a414a"/><path d="M360.48 1093.98l.06.88.2.85.34.8.45.75.56.66.65.57.74.45.8.33.84.2.88.08h108l1 .07.98.24.94.4.87.52.78.66.66.77.53.86.4.94.23 1 .08.98v28l.06.88.2.85.34.8.45.75.56.66.65.57.74.45.8.33.84.2.88.08h17.6v.94h-17.64l-1-.07-.98-.24-.94-.4-.87-.52-.78-.66-.66-.77-.53-.86-.4-.94-.23-1-.08-.98v-28l-.06-.88-.2-.85-.34-.8-.45-.75-.56-.66-.65-.57-.74-.45-.8-.33-.84-.2-.88-.08h-108l-1-.07-.98-.24-.94-.4-.87-.52-.78-.66-.66-.77-.53-.86-.4-.94-.23-1-.08-.98V830.27h.96zm0-321.98h-.96v-11.5h.96z" stroke="#3a414a" stroke-width=".05" fill="#3a414a"/><path d="M360.48 760.5h-.96v-.5h.96z" fill="#3a414a"/><path stroke="#3a414a" stroke-width=".05" fill="#3a414a"/><path d="M518.38 1140l-14.26 4.63v-9.27z" fill="#3a414a"/><path d="M519.92 1140l-16.28 5.3v-10.6zm-15.33 3.98l12.25-3.98-12.26-3.98z" stroke="#3a414a" stroke-width=".05" fill="#3a414a"/><path d="M960.5 300H1154a6 6 0 0 1 6 6v257.62" stroke="#3a414a" fill="none"/><path d="M960.5 300.48H960l.02-.48-.02-.48h.53z" stroke="#3a414a" stroke-width=".05" fill="#3a414a"/><path d="M1160 578.38l-4.63-14.26h9.27z" stroke="#3a414a" fill="#3a414a"/><path d="M640.5 740h183.12" stroke="#3a414a" fill="none"/><path d="M640.5 740.48h-.5v-.96h.5z" stroke="#3a414a" stroke-width=".05" fill="#3a414a"/><path d="M838.38 740l-14.26 4.63v-9.26z" stroke="#3a414a" fill="#3a414a"/><path d="M640.5 1140h183.12" stroke="#3a414a" fill="none"/><path d="M640.5 1140.47h-.5v-.94h.5z" stroke="#3a414a" stroke-width=".05" fill="#3a414a"/><path d="M838.38 1140l-14.26 4.63v-9.27z" stroke="#3a414a" fill="#3a414a"/><path d="M1083.62 640.48h-47.6l-.88.06-.85.2-.8.34-.75.45-.66.56-.57.65-.45.74-.33.8-.2.84-.08.88v88l-.07 1-.24.98-.4.94-.52.87-.66.78-.77.66-.86.53-.94.4-1 .23-.98.08H960.5v-.96h63.48l.88-.06.85-.2.8-.34.75-.45.66-.56.57-.65.45-.74.33-.8.2-.84.08-.88v-88l.07-1 .24-.98.4-.94.52-.87.66-.78.77-.66.86-.53.94-.4 1-.23.98-.08h47.64z" stroke="#3a414a" stroke-width=".05" fill="#3a414a"/><path d="M960.5 740.48H960l.02-.48-.02-.48h.53z" fill="#3a414a"/><path stroke="#3a414a" stroke-width=".05" fill="#3a414a"/><path d="M1098.38 640l-14.26 4.63v-9.26z" fill="#3a414a"/><path d="M1099.92 640l-16.28 5.3v-10.6zm-15.33 3.98l12.25-3.98-12.26-3.98zM900.48 679.5h-.96v-38.23h.96z" stroke="#3a414a" stroke-width=".05" fill="#3a414a"/><path d="M900.48 680.02L900 680l-.48.02v-.53h.96z" fill="#3a414a"/><path stroke="#3a414a" stroke-width=".05" fill="#3a414a"/><path d="M903.05 587h-6.1l3.05-9.38z" fill="#3a414a"/><path d="M903.55 587h-1l-2.55-7.85-2.55 7.85h-1l3.55-10.92zM1022.36 800.48H900.5v-.96h121.86zm404.7 0H1321.1v-.96h105.97z" stroke="#3a414a" stroke-width=".05" fill="#3a414a"/><path fill="#3a414a"/><path stroke="#3a414a" stroke-width=".05" fill="#3a414a"/><path d="M1441.84 800l-14.27 4.63v-9.26z" fill="#3a414a"/><path d="M1443.38 800l-16.28 5.3v-10.6zm-15.33 3.98l12.25-3.98-12.25-3.98z" stroke="#3a414a" stroke-width=".05" fill="#3a414a"/><g><use xlink:href="#Q" transform="matrix(1,0,0,1,1022.357299404305,789.2447916666666) translate(0 17.22222222222222)"/><use xlink:href="#R" transform="matrix(1,0,0,1,1022.357299404305,789.2447916666666) translate(93.00347222222221 17.22222222222222)"/><use xlink:href="#S" transform="matrix(1,0,0,1,1022.357299404305,789.2447916666666) translate(138.01215277777777 17.22222222222222)"/><use xlink:href="#T" transform="matrix(1,0,0,1,1022.357299404305,789.2447916666666) translate(223.78472222222223 17.22222222222222)"/></g><path d="M1160.47 1134.02l-.07 1-.24.98-.4.94-.52.87-.66.78-.77.66-.86.53-.94.4-1 .23-.98.07H960.5v-.94h193.48l.88-.07.85-.2.8-.34.75-.45.66-.56.57-.65.45-.74.33-.8.2-.84.08-.88V810.75h.94zm0-344.77h-.94v-19.98h.94z" stroke="#3a414a" stroke-width=".05" fill="#3a414a"/><path d="M960.5 1140.47H960l.02-.47-.02-.47h.53z" fill="#3a414a"/><path stroke="#3a414a" stroke-width=".05" fill="#3a414a"/><path d="M1163.37 712h-6.74l3.37-10.38z" fill="#3a414a"/><path d="M1163.87 712h-1l-2.87-8.85-2.87 8.85h-1l3.87-11.92z" stroke="#3a414a" stroke-width=".05" fill="#3a414a"/><path d="M793.52 1001.55a6 6 0 0 1 6-6h200.96a6 6 0 0 1 6 6v24.9a6 6 0 0 1-6 6H799.5a6 6 0 0 1-6-6z" fill="none"/><g><use xlink:href="#U" transform="matrix(1,0,0,1,798.5247309027778,1000.5509895833334) translate(0.029730902777799884 21.58376736111111)"/><use xlink:href="#V" transform="matrix(1,0,0,1,798.5247309027778,1000.5509895833334) translate(61.3361545138889 21.58376736111111)"/><use xlink:href="#W" transform="matrix(1,0,0,1,798.5247309027778,1000.5509895833334) translate(99.05316840277779 21.58376736111111)"/></g><defs><path d="M52 0l541-1490h220L1361 0h-200l-149-416H398L254 0H52zm404-582h497c-103-290-145-390-251-756-108 377-145 460-246 756" id="X"/><path d="M158 0v-1118h175l1 205c55-151 181-225 313-225 147 0 245 90 285 228 53-141 190-228 352-228 194 0 352 125 352 384V0h-181v-749c0-161-105-225-225-225-151 0-243 103-243 244V0H807v-767c0-124-93-207-219-207-131 0-250 92-250 270V0H158" id="Y"/><path d="M471 26C259 26 90-98 90-318c0-256 228-303 435-329 202-27 287-16 287-108 0-139-79-219-234-219-161 0-248 86-283 164l-173-57c86-203 278-265 451-265 150 0 419 46 419 395V0H815v-152h-12C765-73 660 26 471 26zm31-159c199 0 310-134 310-271v-155c-30 35-226 55-295 64-131 17-246 59-246 186 0 116 97 176 231 176" id="Z"/><path d="M126 0v-134l627-806v-11H146v-167h839v143L376-178v11h629V0H126" id="aa"/><path d="M613 24c-304 0-509-231-509-576 0-350 205-580 509-580 305 0 511 230 511 580 0 345-206 576-511 576zm0-161c226 0 329-195 329-415 0-222-103-419-329-419-223 0-326 196-326 419 0 220 103 415 326 415" id="ab"/><path d="M338-670V0H158v-1118h173l1 207c72-158 192-221 342-221 226 0 378 139 378 422V0H872v-695c0-172-96-275-252-275-161 0-282 109-282 300" id="ac"/><g id="a"><use transform="matrix(0.010850694444444444,0,0,0.010850694444444444,0,0)" xlink:href="#X"/><use transform="matrix(0.010850694444444444,0,0,0.010850694444444444,15.33203125,0)" xlink:href="#Y"/><use transform="matrix(0.010850694444444444,0,0,0.010850694444444444,34.79817708333333,0)" xlink:href="#Z"/><use transform="matrix(0.010850694444444444,0,0,0.010850694444444444,47.27647569444444,0)" xlink:href="#aa"/><use transform="matrix(0.010850694444444444,0,0,0.010850694444444444,59.22309027777778,0)" xlink:href="#ab"/><use transform="matrix(0.010850694444444444,0,0,0.010850694444444444,72.54774305555554,0)" xlink:href="#ac"/></g><path d="M783 20c-382 0-661-292-661-764 0-473 279-766 661-766 302 0 548 182 601 489h-190c-42-204-217-313-411-313-268 0-476 208-476 590 0 381 209 588 476 588 195 0 369-110 411-313h190c-52 303-296 489-601 489" id="ad"/><path d="M338-1490V0H158v-1490h180" id="ae"/><path d="M537 14c-226 0-379-139-379-422v-710h180v695c0 172 97 275 253 275 160 0 281-109 281-300v-670h181V0H879v-209C806-46 684 14 537 14" id="af"/><path d="M577 24c-279 0-473-224-473-580 0-354 195-576 474-576 218 0 287 134 324 193h14v-551h180V0H922v-173h-20C865-111 790 24 577 24zm27-161c203 0 314-172 314-421 0-247-108-413-314-413-212 0-317 181-317 413 0 235 108 421 317 421" id="ag"/><g id="b"><use transform="matrix(0.010850694444444444,0,0,0.010850694444444444,0,0)" xlink:href="#ad"/><use transform="matrix(0.010850694444444444,0,0,0.010850694444444444,16.23263888888889,0)" xlink:href="#ae"/><use transform="matrix(0.010850694444444444,0,0,0.010850694444444444,21.614583333333336,0)" xlink:href="#ab"/><use transform="matrix(0.010850694444444444,0,0,0.010850694444444444,34.939236111111114,0)" xlink:href="#af"/><use transform="matrix(0.010850694444444444,0,0,0.010850694444444444,48.07942708333333,0)" xlink:href="#ag"/></g><g id="c"><use transform="matrix(0.010850694444444444,0,0,0.010850694444444444,0,0)" xlink:href="#X"/><use transform="matrix(0.010850694444444444,0,0,0.010850694444444444,15.33203125,0)" xlink:href="#Y"/><use transform="matrix(0.010850694444444444,0,0,0.010850694444444444,34.79817708333333,0)" xlink:href="#Z"/><use transform="matrix(0.010850694444444444,0,0,0.010850694444444444,47.27647569444444,0)" xlink:href="#aa"/><use transform="matrix(0.010850694444444444,0,0,0.010850694444444444,59.22309027777778,0)" xlink:href="#ab"/><use transform="matrix(0.010850694444444444,0,0,0.010850694444444444,72.54774305555554,0)" xlink:href="#ac"/></g><path d="M180 0v-1490h901v168H370v510h643v168H370V0H180" id="ah"/><path d="M158 0v-1118h174v172h12c41-113 157-188 290-188 26 0 70 2 91 3v181c-11-2-60-10-108-10-161 0-279 109-279 260V0H158" id="ai"/><path d="M598-1118v154H368v674c0 100 37 144 132 144 23 0 62-6 92-12L629-6c-37 13-88 20-134 20-193 0-307-107-307-290v-688H20v-154h168v-266h180v266h230" id="aj"/><g id="d"><use transform="matrix(0.010850694444444444,0,0,0.010850694444444444,0,0)" xlink:href="#ad"/><use transform="matrix(0.010850694444444444,0,0,0.010850694444444444,16.23263888888889,0)" xlink:href="#ae"/><use transform="matrix(0.010850694444444444,0,0,0.010850694444444444,21.614583333333336,0)" xlink:href="#ab"/><use transform="matrix(0.010850694444444444,0,0,0.010850694444444444,34.939236111111114,0)" xlink:href="#af"/><use transform="matrix(0.010850694444444444,0,0,0.010850694444444444,48.07942708333333,0)" xlink:href="#ag"/><use transform="matrix(0.010850694444444444,0,0,0.010850694444444444,61.68619791666667,0)" xlink:href="#ah"/><use transform="matrix(0.010850694444444444,0,0,0.010850694444444444,74.15364583333334,0)" xlink:href="#ai"/><use transform="matrix(0.010850694444444444,0,0,0.010850694444444444,82.1506076388889,0)" xlink:href="#ab"/><use transform="matrix(0.010850694444444444,0,0,0.010850694444444444,95.47526041666666,0)" xlink:href="#ac"/><use transform="matrix(0.010850694444444444,0,0,0.010850694444444444,108.60460069444444,0)" xlink:href="#aj"/></g><path d="M180 0v-1490h510c348 0 508 209 508 474 0 266-160 477-507 477H370V0H180zm190-706h312c236 0 327-133 327-310 0-176-91-307-329-307H370v617" id="ak"/><path d="M370-1490V0H180v-1490h190" id="al"/><g id="e"><use transform="matrix(0.010850694444444444,0,0,0.010850694444444444,0,0)" xlink:href="#X"/><use transform="matrix(0.010850694444444444,0,0,0.010850694444444444,15.33203125,0)" xlink:href="#ak"/><use transform="matrix(0.010850694444444444,0,0,0.010850694444444444,29.524739583333332,0)" xlink:href="#al"/></g><path d="M789 20c-398 0-667-293-667-764 0-473 273-766 655-766 315 0 558 198 612 487h-196c-61-191-204-311-415-311-262 0-471 207-471 590 0 380 208 588 482 588 249 0 420-165 425-427H828v-166h572v163c0 370-256 606-611 606" id="am"/><path d="M628 24c-324 0-524-230-524-574 0-343 198-582 503-582 237 0 487 146 487 559v75H286c9 234 145 362 343 362 132 0 231-58 273-172l174 48C1024-91 857 24 628 24zM287-650h624c-17-190-120-322-304-322-192 0-309 151-320 322" id="an"/><path d="M409 0L70-1118h191c89 329 165 560 243 925 75-353 154-601 240-925h192c85 325 161 564 235 922 77-354 157-598 244-922h191L1267 0h-179c-86-307-176-590-250-913C763-588 675-308 588 0H409" id="ao"/><path d="M140 405l46-156c120 36 205 19 263-150l32-93L54-1118h197c107 313 237 620 324 950 87-331 219-637 326-950h196L606 167c-68 178-176 259-334 259-64 0-113-12-132-21" id="ap"/><g id="f"><use transform="matrix(0.010850694444444444,0,0,0.010850694444444444,0,0)" xlink:href="#am"/><use transform="matrix(0.010850694444444444,0,0,0.010850694444444444,16.57986111111111,0)" xlink:href="#Z"/><use transform="matrix(0.010850694444444444,0,0,0.010850694444444444,29.05815972222222,0)" xlink:href="#aj"/><use transform="matrix(0.010850694444444444,0,0,0.010850694444444444,36.11111111111111,0)" xlink:href="#an"/><use transform="matrix(0.010850694444444444,0,0,0.010850694444444444,48.66536458333333,0)" xlink:href="#ao"/><use transform="matrix(0.010850694444444444,0,0,0.010850694444444444,66.85112847222221,0)" xlink:href="#Z"/><use transform="matrix(0.010850694444444444,0,0,0.010850694444444444,79.00390625,0)" xlink:href="#ap"/></g><path d="M180 0v-1490h190v1322h690V0H180" id="aq"/><path d="M677 24c-213 0-288-135-325-197h-20V0H158v-1490h180v551h14c37-59 106-193 324-193 279 0 474 222 474 576 0 356-194 580-473 580zm-27-161c209 0 317-186 317-421 0-232-105-413-317-413-206 0-314 166-314 413 0 249 111 421 314 421" id="ar"/><g id="g"><use transform="matrix(0.010850694444444444,0,0,0.010850694444444444,0,0)" xlink:href="#aq"/><use transform="matrix(0.010850694444444444,0,0,0.010850694444444444,12.565104166666666,0)" xlink:href="#Z"/><use transform="matrix(0.010850694444444444,0,0,0.010850694444444444,25.04340277777778,0)" xlink:href="#Y"/><use transform="matrix(0.010850694444444444,0,0,0.010850694444444444,44.50954861111111,0)" xlink:href="#ar"/><use transform="matrix(0.010850694444444444,0,0,0.010850694444444444,58.11631944444444,0)" xlink:href="#ag"/><use transform="matrix(0.010850694444444444,0,0,0.010850694444444444,71.72309027777777,0)" xlink:href="#Z"/></g><path d="M613 24c-304 0-509-231-509-576 0-350 205-580 509-580 216 0 392 114 453 309l-173 49c-33-115-133-197-280-197-223 0-326 196-326 419 0 220 103 415 326 415 150 0 252-85 285-206l172 49C1010-95 832 24 613 24" id="as"/><path d="M158 0v-1118h180V0H158zm91-1301c-68 0-125-53-125-119s57-119 125-119c69 0 126 53 126 119s-57 119-126 119" id="at"/><g id="h"><use transform="matrix(0.010850694444444444,0,0,0.010850694444444444,0,0)" xlink:href="#ah"/><use transform="matrix(0.010850694444444444,0,0,0.010850694444444444,12.369791666666666,0)" xlink:href="#af"/><use transform="matrix(0.010850694444444444,0,0,0.010850694444444444,25.50998263888889,0)" xlink:href="#ac"/><use transform="matrix(0.010850694444444444,0,0,0.010850694444444444,38.639322916666664,0)" xlink:href="#as"/><use transform="matrix(0.010850694444444444,0,0,0.010850694444444444,51.334635416666664,0)" xlink:href="#aj"/><use transform="matrix(0.010850694444444444,0,0,0.010850694444444444,58.60460069444444,0)" xlink:href="#at"/><use transform="matrix(0.010850694444444444,0,0,0.010850694444444444,63.986545138888886,0)" xlink:href="#ab"/><use transform="matrix(0.010850694444444444,0,0,0.010850694444444444,77.31119791666666,0)" xlink:href="#ac"/></g><path d="M180 0v-1490h510c348 0 508 194 508 460 0 198-88 351-276 417L1256 0h-220L726-579c-117 2-238 0-356 1V0H180zm190-747h312c235 0 327-108 327-283 0-177-92-293-329-293H370v576" id="au"/><path d="M538 24C308 24 148-78 108-271l171-41c32 123 123 178 257 178 156 0 256-77 256-169 0-77-54-128-164-154l-186-44c-203-48-300-148-300-305 0-192 176-326 414-326 230 0 351 112 402 269l-163 42c-31-80-94-158-238-158-133 0-233 69-233 162 0 83 57 129 188 160l169 40c203 48 298 149 298 302 0 196-179 339-441 339" id="av"/><g id="i"><use transform="matrix(0.010850694444444444,0,0,0.010850694444444444,0,0)" xlink:href="#au"/><use transform="matrix(0.010850694444444444,0,0,0.010850694444444444,13.975694444444445,0)" xlink:href="#an"/><use transform="matrix(0.010850694444444444,0,0,0.010850694444444444,26.931423611111104,0)" xlink:href="#ag"/><use transform="matrix(0.010850694444444444,0,0,0.010850694444444444,40.53819444444444,0)" xlink:href="#at"/><use transform="matrix(0.010850694444444444,0,0,0.010850694444444444,45.920138888888886,0)" xlink:href="#av"/></g><path d="M338-670V0H158v-1490h180v566c73-149 190-208 336-208 226 0 379 139 379 422V0H872v-695c0-172-96-275-252-275-161 0-282 109-282 300" id="aw"/><g id="j"><use transform="matrix(0.010850694444444444,0,0,0.010850694444444444,0,0)" xlink:href="#as"/><use transform="matrix(0.010850694444444444,0,0,0.010850694444444444,12.91232638888889,0)" xlink:href="#Z"/><use transform="matrix(0.010850694444444444,0,0,0.010850694444444444,25.390625,0)" xlink:href="#as"/><use transform="matrix(0.010850694444444444,0,0,0.010850694444444444,38.0859375,0)" xlink:href="#aw"/><use transform="matrix(0.010850694444444444,0,0,0.010850694444444444,51.22612847222222,0)" xlink:href="#an"/></g><path d="M678-1118v154H420V0H240v-964H20v-154h220v-149c0-194 155-293 318-293 85 0 141 18 168 30l-50 154c-19-6-47-17-97-17-111 0-159 58-159 166v109h258" id="ax"/><g id="k"><use transform="matrix(0.010850694444444444,0,0,0.010850694444444444,0,0)" xlink:href="#ax"/><use transform="matrix(0.010850694444444444,0,0,0.010850694444444444,7.573784722222222,0)" xlink:href="#ab"/><use transform="matrix(0.010850694444444444,0,0,0.010850694444444444,20.8984375,0)" xlink:href="#ai"/></g><path d="M481 0L54-1118h197c107 314 236 620 325 951 87-331 217-637 324-951h197L670 0H481" id="ay"/><g id="l"><use transform="matrix(0.010850694444444444,0,0,0.010850694444444444,0,0)" xlink:href="#ai"/><use transform="matrix(0.010850694444444444,0,0,0.010850694444444444,7.996961805555555,0)" xlink:href="#an"/><use transform="matrix(0.010850694444444444,0,0,0.010850694444444444,20.95269097222222,0)" xlink:href="#aj"/><use transform="matrix(0.010850694444444444,0,0,0.010850694444444444,28.22265625,0)" xlink:href="#ai"/><use transform="matrix(0.010850694444444444,0,0,0.010850694444444444,36.935763888888886,0)" xlink:href="#at"/><use transform="matrix(0.010850694444444444,0,0,0.010850694444444444,42.31770833333333,0)" xlink:href="#an"/><use transform="matrix(0.010850694444444444,0,0,0.010850694444444444,54.83940972222221,0)" xlink:href="#ay"/><use transform="matrix(0.010850694444444444,0,0,0.010850694444444444,66.89453124999999,0)" xlink:href="#an"/><use transform="matrix(0.010850694444444444,0,0,0.010850694444444444,79.85026041666666,0)" xlink:href="#ag"/></g><path d="M180 0v-1490h908v168H370v486h669v168H370v500h727V0H180" id="az"/><g id="m"><use transform="matrix(0.010850694444444444,0,0,0.010850694444444444,0,0)" xlink:href="#az"/><use transform="matrix(0.010850694444444444,0,0,0.010850694444444444,13.35720486111111,0)" xlink:href="#ay"/><use transform="matrix(0.010850694444444444,0,0,0.010850694444444444,25.41232638888889,0)" xlink:href="#an"/><use transform="matrix(0.010850694444444444,0,0,0.010850694444444444,38.36805555555555,0)" xlink:href="#ac"/><use transform="matrix(0.010850694444444444,0,0,0.010850694444444444,51.49739583333333,0)" xlink:href="#aj"/><use transform="matrix(0.010850694444444444,0,0,0.010850694444444444,58.55034722222222,0)" xlink:href="#av"/></g><path d="M730-137c145 0 253-29 323-105v-327H716v-156h528v534C1148-51 964 20 729 20c-394 0-598-279-607-678v-127c-5-410 194-690 585-691 310-1 499 171 537 447h-192c-36-193-151-289-344-289-285 0-393 220-393 528v119c-5 296 140 534 415 534" id="aA"/><path d="M584 20C278 26 81-227 91-551c10-320 175-545 491-551 308-5 503 247 494 573-9 322-175 543-492 549zm-2-970c-208 0-305 185-305 421 0 216 106 398 307 398 211 0 307-186 307-420 0-214-109-399-309-399" id="aB"/><path d="M521 20C240 20 96-239 96-550c0-303 147-552 427-552 132 0 235 47 309 140l9-120h169V-26c4 277-183 454-459 452-165-1-334-81-400-187l96-111c79 98 176 147 291 147 180 1 288-109 286-290v-93C750-23 649 20 521 20zm48-965c-209 0-287 178-287 416 0 217 86 392 285 392 117 0 202-53 257-159v-494c-57-103-142-155-255-155" id="aC"/><path d="M341 0H156v-1536h185V0" id="aD"/><path d="M599-131c141 0 220-65 285-146l113 88C906-50 770 20 589 20 281 21 93-214 93-545c0-223 93-397 233-485 74-48 154-72 240-72 300 2 449 218 445 537v77H278c0 197 129 357 321 357zm227-509c-3-180-88-310-260-310-170 0-264 140-282 310h542" id="aE"/><g id="n"><use transform="matrix(0.008173828125000001,0,0,0.008173828125000001,0,0)" xlink:href="#aA"/><use transform="matrix(0.008173828125000001,0,0,0.008173828125000001,11.402490234375001,0)" xlink:href="#aB"/><use transform="matrix(0.008173828125000001,0,0,0.008173828125000001,20.949521484375005,0)" xlink:href="#aB"/><use transform="matrix(0.008173828125000001,0,0,0.008173828125000001,30.49655273437501,0)" xlink:href="#aC"/><use transform="matrix(0.008173828125000001,0,0,0.008173828125000001,39.888281250000006,0)" xlink:href="#aD"/><use transform="matrix(0.008173828125000001,0,0,0.008173828125000001,43.950673828125005,0)" xlink:href="#aE"/></g><path d="M688-137c238 0 323-102 359-325h193c-32 297-228 482-552 482-361 0-569-299-569-680 0-197 8-360 73-497 88-186 257-317 513-319 316-2 509 195 535 488h-193c-31-212-118-330-342-330-272 0-397 224-393 523v141c-3 282 115 517 376 517" id="aF"/><path d="M561-1102c238-4 403 126 403 351v498c0 99 13 178 38 237V0H808c-11-21-19-59-26-114C696-25 593 20 474 20c-199 0-368-130-365-320 4-251 214-359 490-356h180v-85c-1-135-86-212-229-212-115 0-232 67-233 171H131c20-205 206-316 430-320zM294-326c0 117 90 185 207 185 122 0 239-75 278-162v-222H634c-227 0-340 66-340 199" id="aG"/><path d="M589-945c-131 0-219 81-264 174V0H140v-1082h175l6 136c83-104 191-156 324-156 229 0 346 129 346 387V0H806v-716c-2-153-65-229-217-229" id="aH"/><path d="M520 20C244 20 95-247 95-550c0-298 151-550 427-552 127 0 227 43 301 130v-564h185V0H838l-9-116C755-25 652 20 520 20zm48-965c-210 0-288 177-288 416 0 218 87 392 286 392 117 0 203-53 257-158v-497c-55-102-140-153-255-153" id="aI"/><path d="M663-916c-163-27-288 18-338 148V0H140v-1082h180l3 125c61-97 147-145 258-145 36 0 63 5 82 14v172" id="aJ"/><g id="o"><use transform="matrix(0.008173828125000001,0,0,0.008173828125000001,0,0)" xlink:href="#aF"/><use transform="matrix(0.008173828125000001,0,0,0.008173828125000001,10.895712890625001,0)" xlink:href="#aG"/><use transform="matrix(0.008173828125000001,0,0,0.008173828125000001,20.001357421875,0)" xlink:href="#aD"/><use transform="matrix(0.008173828125000001,0,0,0.008173828125000001,24.06375,0)" xlink:href="#aE"/><use transform="matrix(0.008173828125000001,0,0,0.008173828125000001,32.932353515624996,0)" xlink:href="#aH"/><use transform="matrix(0.008173828125000001,0,0,0.008173828125000001,42.168779296874995,0)" xlink:href="#aI"/><use transform="matrix(0.008173828125000001,0,0,0.008173828125000001,51.60955078124999,0)" xlink:href="#aG"/><use transform="matrix(0.008173828125000001,0,0,0.008173828125000001,60.71519531249999,0)" xlink:href="#aJ"/></g><path d="M973-380H363L226 0H28l556-1456h168L1309 0h-197zM421-538h495l-248-681" id="aK"/><path d="M1216-1011c-1 297-202 441-512 441H361V0H169v-1456h537c297-6 510 164 510 445zm-192 2c1-178-126-288-307-289H361v571h345c196 1 318-92 318-282" id="aL"/><path d="M375 0H183v-1456h192V0" id="aM"/><g id="p"><use transform="matrix(0.008173828125000001,0,0,0.008173828125000001,0,0)" xlink:href="#aK"/><use transform="matrix(0.008173828125000001,0,0,0.008173828125000001,10.920234375000001,0)" xlink:href="#aL"/><use transform="matrix(0.008173828125000001,0,0,0.008173828125000001,21.4808203125,0)" xlink:href="#aM"/></g><path d="M458 0L52-1490h194c108 439 233 855 324 1313 92-459 221-873 331-1313h216c110 438 234 854 330 1307 92-455 216-869 323-1307h196L1558 0h-221l-256-944c-26-95-50-200-73-331-22 122-44 223-73 331L680 0H458" id="aN"/><g id="q"><use transform="matrix(0.010850694444444444,0,0,0.010850694444444444,0,0)" xlink:href="#aN"/><use transform="matrix(0.010850694444444444,0,0,0.010850694444444444,20.768229166666668,0)" xlink:href="#an"/><use transform="matrix(0.010850694444444444,0,0,0.010850694444444444,33.723958333333336,0)" xlink:href="#ar"/></g><path d="M158 418v-1536h174v179h20c37-59 106-193 324-193 279 0 474 222 474 576 0 356-194 580-473 580-213 0-288-135-325-197h-14v591H158zm492-555c209 0 317-186 317-421 0-232-105-413-317-413-206 0-314 166-314 413 0 249 111 421 314 421" id="aO"/><g id="r"><use transform="matrix(0.010850694444444444,0,0,0.010850694444444444,0,0)" xlink:href="#X"/><use transform="matrix(0.010850694444444444,0,0,0.010850694444444444,15.33203125,0)" xlink:href="#aO"/><use transform="matrix(0.010850694444444444,0,0,0.010850694444444444,28.938802083333332,0)" xlink:href="#aO"/></g><g id="s"><use transform="matrix(0.010850694444444444,0,0,0.010850694444444444,0,0)" xlink:href="#X"/><use transform="matrix(0.010850694444444444,0,0,0.010850694444444444,15.33203125,0)" xlink:href="#av"/><use transform="matrix(0.010850694444444444,0,0,0.010850694444444444,27.061631944444443,0)" xlink:href="#av"/><use transform="matrix(0.010850694444444444,0,0,0.010850694444444444,38.791232638888886,0)" xlink:href="#an"/><use transform="matrix(0.010850694444444444,0,0,0.010850694444444444,51.74696180555556,0)" xlink:href="#aj"/><use transform="matrix(0.010850694444444444,0,0,0.010850694444444444,58.79991319444444,0)" xlink:href="#av"/></g><path d="M645 0H180v-1490h484c435 0 692 280 692 742 0 466-257 748-711 748zM370-168h263c363 0 539-218 539-580 0-358-176-574-521-574H370v1154" id="aP"/><path d="M180 0v-1490h528c311 0 458 177 458 395 0 191-114 278-244 313v14c139 9 302 137 302 371 0 225-148 397-499 397H180zm190-168h350c232 0 321-102 321-231 0-149-120-277-311-277H370v508zm0-668h328c160 0 286-101 286-255 0-129-87-231-280-231H370v486" id="aQ"/><g id="t"><use transform="matrix(0.010850694444444444,0,0,0.010850694444444444,0,0)" xlink:href="#aP"/><use transform="matrix(0.010850694444444444,0,0,0.010850694444444444,16.03732638888889,0)" xlink:href="#ap"/><use transform="matrix(0.010850694444444444,0,0,0.010850694444444444,28.526475694444443,0)" xlink:href="#ac"/><use transform="matrix(0.010850694444444444,0,0,0.010850694444444444,41.65581597222222,0)" xlink:href="#Z"/><use transform="matrix(0.010850694444444444,0,0,0.010850694444444444,54.13411458333333,0)" xlink:href="#Y"/><use transform="matrix(0.010850694444444444,0,0,0.010850694444444444,73.60026041666666,0)" xlink:href="#ab"/><use transform="matrix(0.010850694444444444,0,0,0.010850694444444444,86.92491319444443,0)" xlink:href="#aP"/><use transform="matrix(0.010850694444444444,0,0,0.010850694444444444,102.96223958333331,0)" xlink:href="#aQ"/></g><g id="u"><use transform="matrix(0.010850694444444444,0,0,0.010850694444444444,0,0)" xlink:href="#ad"/><use transform="matrix(0.010850694444444444,0,0,0.010850694444444444,16.23263888888889,0)" xlink:href="#ae"/><use transform="matrix(0.010850694444444444,0,0,0.010850694444444444,21.614583333333336,0)" xlink:href="#ab"/><use transform="matrix(0.010850694444444444,0,0,0.010850694444444444,34.939236111111114,0)" xlink:href="#af"/><use transform="matrix(0.010850694444444444,0,0,0.010850694444444444,48.07942708333333,0)" xlink:href="#ag"/><use transform="matrix(0.010850694444444444,0,0,0.010850694444444444,61.68619791666667,0)" xlink:href="#aN"/><use transform="matrix(0.010850694444444444,0,0,0.010850694444444444,82.45442708333334,0)" xlink:href="#Z"/><use transform="matrix(0.010850694444444444,0,0,0.010850694444444444,94.93272569444446,0)" xlink:href="#aj"/><use transform="matrix(0.010850694444444444,0,0,0.010850694444444444,101.98567708333334,0)" xlink:href="#as"/><use transform="matrix(0.010850694444444444,0,0,0.010850694444444444,114.68098958333334,0)" xlink:href="#aw"/></g><path d="M611 442c-248 0-391-105-460-228l146-94c47 65 117 165 314 165 178 0 307-82 307-266v-224h-17C863-141 792-18 576-18c-268 0-472-195-472-546 0-346 197-568 476-568 216 0 288 133 326 193h17v-179h175V29c0 289-215 413-487 413zm-5-620c203 0 314-146 314-390 0-237-108-403-314-403-213 0-319 180-319 403 0 230 109 390 319 390" id="aR"/><g id="v"><use transform="matrix(0.010850694444444444,0,0,0.010850694444444444,0,0)" xlink:href="#av"/><use transform="matrix(0.010850694444444444,0,0,0.010850694444444444,11.729600694444445,0)" xlink:href="#aj"/><use transform="matrix(0.010850694444444444,0,0,0.010850694444444444,18.782552083333332,0)" xlink:href="#ab"/><use transform="matrix(0.010850694444444444,0,0,0.010850694444444444,32.10720486111111,0)" xlink:href="#ai"/><use transform="matrix(0.010850694444444444,0,0,0.010850694444444444,40.82031249999999,0)" xlink:href="#at"/><use transform="matrix(0.010850694444444444,0,0,0.010850694444444444,46.202256944444436,0)" xlink:href="#ac"/><use transform="matrix(0.010850694444444444,0,0,0.010850694444444444,59.33159722222221,0)" xlink:href="#aR"/></g><g id="w"><use transform="matrix(0.010850694444444444,0,0,0.010850694444444444,0,0)" xlink:href="#ae"/><use transform="matrix(0.010850694444444444,0,0,0.010850694444444444,5.381944444444445,0)" xlink:href="#ab"/><use transform="matrix(0.010850694444444444,0,0,0.010850694444444444,18.70659722222222,0)" xlink:href="#aR"/><use transform="matrix(0.010850694444444444,0,0,0.010850694444444444,32.33506944444444,0)" xlink:href="#av"/></g><g id="x"><use transform="matrix(0.010850694444444444,0,0,0.010850694444444444,0,0)" xlink:href="#ab"/><use transform="matrix(0.010850694444444444,0,0,0.010850694444444444,13.324652777777777,0)" xlink:href="#ax"/></g><g id="y"><use transform="matrix(0.010850694444444444,0,0,0.010850694444444444,0,0)" xlink:href="#an"/><use transform="matrix(0.010850694444444444,0,0,0.010850694444444444,12.52170138888889,0)" xlink:href="#ay"/><use transform="matrix(0.010850694444444444,0,0,0.010850694444444444,24.576822916666664,0)" xlink:href="#an"/><use transform="matrix(0.010850694444444444,0,0,0.010850694444444444,37.53255208333333,0)" xlink:href="#ai"/><use transform="matrix(0.010850694444444444,0,0,0.010850694444444444,46.24565972222221,0)" xlink:href="#ap"/></g><path d="M692-1560L212 224H46l480-1784h166" id="aS"/><g id="z"><use transform="matrix(0.010850694444444444,0,0,0.010850694444444444,0,0)" xlink:href="#av"/><use transform="matrix(0.010850694444444444,0,0,0.010850694444444444,11.729600694444445,0)" xlink:href="#an"/><use transform="matrix(0.010850694444444444,0,0,0.010850694444444444,24.68532986111111,0)" xlink:href="#ai"/><use transform="matrix(0.010850694444444444,0,0,0.010850694444444444,33.3984375,0)" xlink:href="#ay"/><use transform="matrix(0.010850694444444444,0,0,0.010850694444444444,45.88758680555556,0)" xlink:href="#at"/><use transform="matrix(0.010850694444444444,0,0,0.010850694444444444,51.26953125,0)" xlink:href="#as"/><use transform="matrix(0.010850694444444444,0,0,0.010850694444444444,63.96484375,0)" xlink:href="#an"/><use transform="matrix(0.010850694444444444,0,0,0.010850694444444444,76.92057291666667,0)" xlink:href="#aS"/><use transform="matrix(0.010850694444444444,0,0,0.010850694444444444,84.92838541666667,0)" xlink:href="#ae"/><use transform="matrix(0.010850694444444444,0,0,0.010850694444444444,90.31032986111111,0)" xlink:href="#Z"/><use transform="matrix(0.010850694444444444,0,0,0.010850694444444444,102.78862847222224,0)" xlink:href="#Y"/><use transform="matrix(0.010850694444444444,0,0,0.010850694444444444,122.25477430555556,0)" xlink:href="#ar"/><use transform="matrix(0.010850694444444444,0,0,0.010850694444444444,135.86154513888889,0)" xlink:href="#ag"/><use transform="matrix(0.010850694444444444,0,0,0.010850694444444444,149.46831597222223,0)" xlink:href="#Z"/></g><g id="A"><use transform="matrix(0.010850694444444444,0,0,0.010850694444444444,0,0)" xlink:href="#ax"/><use transform="matrix(0.010850694444444444,0,0,0.010850694444444444,8.22482638888889,0)" xlink:href="#af"/><use transform="matrix(0.010850694444444444,0,0,0.010850694444444444,21.36501736111111,0)" xlink:href="#ac"/><use transform="matrix(0.010850694444444444,0,0,0.010850694444444444,34.494357638888886,0)" xlink:href="#as"/><use transform="matrix(0.010850694444444444,0,0,0.010850694444444444,47.189670138888886,0)" xlink:href="#aj"/><use transform="matrix(0.010850694444444444,0,0,0.010850694444444444,54.459635416666664,0)" xlink:href="#at"/><use transform="matrix(0.010850694444444444,0,0,0.010850694444444444,59.84157986111111,0)" xlink:href="#ab"/><use transform="matrix(0.010850694444444444,0,0,0.010850694444444444,73.16623263888889,0)" xlink:href="#ac"/></g><path d="M763 24c-353 0-583-224-583-531v-983h190v968c0 214 149 370 393 370 243 0 391-156 391-370v-968h190v983c0 307-230 531-581 531" id="aT"/><g id="B"><use transform="matrix(0.010850694444444444,0,0,0.010850694444444444,0,0)" xlink:href="#aT"/><use transform="matrix(0.010850694444444444,0,0,0.010850694444444444,16.536458333333332,0)" xlink:href="#av"/><use transform="matrix(0.010850694444444444,0,0,0.010850694444444444,28.266059027777775,0)" xlink:href="#an"/><use transform="matrix(0.010850694444444444,0,0,0.010850694444444444,41.22178819444444,0)" xlink:href="#ai"/><use transform="matrix(0.010850694444444444,0,0,0.010850694444444444,49.58767361111111,0)" xlink:href="#av"/></g><g id="C"><use transform="matrix(0.010850694444444444,0,0,0.010850694444444444,0,0)" xlink:href="#ad"/><use transform="matrix(0.010850694444444444,0,0,0.010850694444444444,16.23263888888889,0)" xlink:href="#ab"/><use transform="matrix(0.010850694444444444,0,0,0.010850694444444444,29.557291666666664,0)" xlink:href="#aR"/><use transform="matrix(0.010850694444444444,0,0,0.010850694444444444,43.185763888888886,0)" xlink:href="#ac"/><use transform="matrix(0.010850694444444444,0,0,0.010850694444444444,56.315104166666664,0)" xlink:href="#at"/><use transform="matrix(0.010850694444444444,0,0,0.010850694444444444,61.69704861111111,0)" xlink:href="#aj"/><use transform="matrix(0.010850694444444444,0,0,0.010850694444444444,68.75,0)" xlink:href="#ab"/></g><g id="D"><use transform="matrix(0.010850694444444444,0,0,0.010850694444444444,0,0)" xlink:href="#au"/><use transform="matrix(0.010850694444444444,0,0,0.010850694444444444,13.975694444444445,0)" xlink:href="#an"/><use transform="matrix(0.010850694444444444,0,0,0.010850694444444444,27.1484375,0)" xlink:href="#Z"/><use transform="matrix(0.010850694444444444,0,0,0.010850694444444444,39.626736111111114,0)" xlink:href="#as"/><use transform="matrix(0.010850694444444444,0,0,0.010850694444444444,52.32204861111112,0)" xlink:href="#aj"/></g><g id="E"><use transform="matrix(0.010850694444444444,0,0,0.010850694444444444,0,0)" xlink:href="#au"/><use transform="matrix(0.010850694444444444,0,0,0.010850694444444444,13.975694444444445,0)" xlink:href="#ab"/><use transform="matrix(0.010850694444444444,0,0,0.010850694444444444,27.30034722222222,0)" xlink:href="#af"/><use transform="matrix(0.010850694444444444,0,0,0.010850694444444444,40.44053819444444,0)" xlink:href="#aj"/><use transform="matrix(0.010850694444444444,0,0,0.010850694444444444,47.49348958333333,0)" xlink:href="#an"/><use transform="matrix(0.010850694444444444,0,0,0.010850694444444444,60.44921875,0)" xlink:href="#ai"/></g><path d="M200 0l662-1311v-12H98v-167h963v177L400 0H200" id="aU"/><g id="F"><use transform="matrix(0.010850694444444444,0,0,0.010850694444444444,0,0)" xlink:href="#ay"/><use transform="matrix(0.010850694444444444,0,0,0.010850694444444444,12.489149305555555,0)" xlink:href="#aU"/></g><g id="G"><use transform="matrix(0.010850694444444444,0,0,0.010850694444444444,0,0)" xlink:href="#X"/><use transform="matrix(0.010850694444444444,0,0,0.010850694444444444,15.33203125,0)" xlink:href="#aO"/><use transform="matrix(0.010850694444444444,0,0,0.010850694444444444,28.938802083333332,0)" xlink:href="#aO"/></g><path fill="#333" d="M49 0l509-1490h400L1480 0h-339l-115-346H497L386 0H49zm524-585h374c-75-213-124-402-192-666-66 268-110 453-182 666" id="aV"/><path fill="#333" d="M135 0v-1490h581c339 0 533 210 533 503 0 295-197 500-540 500H440V0H135zm305-733h220c186 0 274-104 274-254s-88-251-275-251H440v505" id="aW"/><path fill="#333" d="M440-1490V0H135v-1490h305" id="aX"/><g id="H"><use transform="matrix(0.008680555555555556,0,0,0.008680555555555556,0,0)" xlink:href="#aV"/><use transform="matrix(0.008680555555555556,0,0,0.008680555555555556,13.272569444444445,0)" xlink:href="#aW"/><use transform="matrix(0.008680555555555556,0,0,0.008680555555555556,24.791666666666668,0)" xlink:href="#aX"/></g><path fill="#333" d="M135 0v-1490h581c339 0 533 192 533 485 0 204-94 351-264 424L1302 0H964L680-532H440V0H135zm305-779h220c186 0 274-77 274-226 0-150-88-233-275-233H440v459" id="aY"/><path fill="#333" d="M633 22C291 22 81-200 81-553c0-345 210-579 537-579 292 0 525 185 525 567v84H378c7 183 109 277 260 277 105 0 184-46 216-132l272 51C1071-99 893 22 633 22zM380-669h474c-15-146-94-237-233-237-143 0-229 99-241 237" id="aZ"/><path fill="#333" d="M1163 418H863v-597h-10C812-89 719 19 537 19 279 19 81-185 81-557c0-382 206-575 454-575 190 0 278 113 318 202h15v-188h295V418zM629-222c153 0 240-134 240-336 0-203-86-334-240-334-158 0-240 138-240 334 0 197 84 336 240 336" id="ba"/><path fill="#333" d="M513 14c-232 0-385-159-385-421v-711h300v659c0 139 76 222 202 222 127 0 217-86 217-234v-647h301V0H864l-4-232C797-74 683 14 513 14" id="bb"/><path fill="#333" d="M572 22C302 22 117-98 78-306l279-48c29 105 101 156 224 156 114 0 185-48 185-115 0-118-228-130-337-155-215-49-322-150-322-317 0-215 187-347 470-347 265 0 424 116 466 298l-266 47c-24-76-87-130-196-130-98 0-174 46-174 113 0 56 38 95 144 117l201 40c216 44 320 143 320 302 0 220-207 367-500 367" id="bc"/><path fill="#333" d="M683-1118v229H474v562c0 71 29 104 102 104 23 0 73-7 95-13l43 225C647 9 580 16 520 16 296 16 174-96 174-301v-588H20v-229h154v-266h300v266h209" id="bd"/><g id="I"><use transform="matrix(0.008680555555555556,0,0,0.008680555555555556,0,0)" xlink:href="#aY"/><use transform="matrix(0.008680555555555556,0,0,0.008680555555555556,11.458333333333334,0)" xlink:href="#aZ"/><use transform="matrix(0.008680555555555556,0,0,0.008680555555555556,22.048611111111114,0)" xlink:href="#ba"/><use transform="matrix(0.008680555555555556,0,0,0.008680555555555556,33.255208333333336,0)" xlink:href="#bb"/><use transform="matrix(0.008680555555555556,0,0,0.008680555555555556,44.32291666666667,0)" xlink:href="#aZ"/><use transform="matrix(0.008680555555555556,0,0,0.008680555555555556,54.91319444444445,0)" xlink:href="#bc"/><use transform="matrix(0.008680555555555556,0,0,0.008680555555555556,64.86979166666667,0)" xlink:href="#bd"/><use transform="matrix(0.008680555555555556,0,0,0.008680555555555556,71.25000000000001,0)" xlink:href="#bc"/></g><path fill="#333" d="M75-1237v-253h1217v253H837V0H531v-1237H75" id="be"/><path fill="#333" d="M128 0v-1118h290v195h12c54-169 184-238 367-200v268c-27-8-86-15-130-15-138 0-239 95-239 234V0H128" id="bf"/><path fill="#333" d="M440 22C227 22 68-92 68-313c0-250 202-322 422-343 195-21 271-24 271-105 0-95-63-149-175-149-116 0-187 57-211 129l-275-46c57-194 237-305 487-305 240 0 474 108 474 379V0H777v-155h-10C713-51 605 22 440 22zm85-211c140 0 238-93 238-211v-121c-37 26-156 42-222 51-111 16-185 59-185 149 0 87 70 132 169 132" id="bg"/><path fill="#333" d="M750-1118v229H516V0H217v-889H20v-229h197v-86c0-238 156-356 363-356 94 0 178 20 215 31l-54 226c-25-7-61-15-100-15-123-3-131 84-125 200h234" id="bh"/><path fill="#333" d="M128 0v-1118h300V0H128zm150-1264c-91 0-165-68-165-154 0-85 74-154 165-154 90 0 165 69 165 154 0 86-75 154-165 154" id="bi"/><path fill="#333" d="M628 22C291 22 81-210 81-554c0-346 210-578 547-578 265 0 455 142 497 372l-279 52c-25-116-99-188-215-188-160 0-244 139-244 341 0 200 84 341 244 341 116 0 193-74 217-195l279 51C1085-123 896 22 628 22" id="bj"/><g id="J"><use transform="matrix(0.008680555555555556,0,0,0.008680555555555556,0,0)" xlink:href="#be"/><use transform="matrix(0.008680555555555556,0,0,0.008680555555555556,10.859375,0)" xlink:href="#bf"/><use transform="matrix(0.008680555555555556,0,0,0.008680555555555556,17.85590277777778,0)" xlink:href="#bg"/><use transform="matrix(0.008680555555555556,0,0,0.008680555555555556,28.177083333333336,0)" xlink:href="#bh"/><use transform="matrix(0.008680555555555556,0,0,0.008680555555555556,34.51388888888889,0)" xlink:href="#bh"/><use transform="matrix(0.008680555555555556,0,0,0.008680555555555556,41.736111111111114,0)" xlink:href="#bi"/><use transform="matrix(0.008680555555555556,0,0,0.008680555555555556,46.55381944444445,0)" xlink:href="#bj"/></g><path d="M98-1322v-168h1126v168H757V0H567v-1322H98" id="bk"/><g id="K"><use transform="matrix(0.010850694444444444,0,0,0.010850694444444444,0,0)" xlink:href="#am"/><use transform="matrix(0.010850694444444444,0,0,0.010850694444444444,16.57986111111111,0)" xlink:href="#az"/><use transform="matrix(0.010850694444444444,0,0,0.010850694444444444,29.93706597222222,0)" xlink:href="#bk"/></g><g id="L"><use transform="matrix(0.010850694444444444,0,0,0.010850694444444444,0,0)" xlink:href="#aS"/><use transform="matrix(0.010850694444444444,0,0,0.010850694444444444,8.0078125,0)" xlink:href="#Z"/><use transform="matrix(0.010850694444444444,0,0,0.010850694444444444,20.48611111111111,0)" xlink:href="#aO"/><use transform="matrix(0.010850694444444444,0,0,0.010850694444444444,34.09288194444444,0)" xlink:href="#at"/><use transform="matrix(0.010850694444444444,0,0,0.010850694444444444,39.474826388888886,0)" xlink:href="#aS"/><use transform="matrix(0.010850694444444444,0,0,0.010850694444444444,47.482638888888886,0)" xlink:href="#af"/><use transform="matrix(0.010850694444444444,0,0,0.010850694444444444,60.62282986111111,0)" xlink:href="#av"/><use transform="matrix(0.010850694444444444,0,0,0.010850694444444444,72.35243055555556,0)" xlink:href="#an"/><use transform="matrix(0.010850694444444444,0,0,0.010850694444444444,85.30815972222223,0)" xlink:href="#ai"/><use transform="matrix(0.010850694444444444,0,0,0.010850694444444444,92.92534722222221,0)" xlink:href="#aS"/><use transform="matrix(0.010850694444444444,0,0,0.010850694444444444,100.93315972222224,0)" xlink:href="#aO"/><use transform="matrix(0.010850694444444444,0,0,0.010850694444444444,114.53993055555556,0)" xlink:href="#ai"/><use transform="matrix(0.010850694444444444,0,0,0.010850694444444444,122.5368923611111,0)" xlink:href="#ab"/><use transform="matrix(0.010850694444444444,0,0,0.010850694444444444,135.86154513888889,0)" xlink:href="#ax"/><use transform="matrix(0.010850694444444444,0,0,0.010850694444444444,144.08637152777777,0)" xlink:href="#at"/><use transform="matrix(0.010850694444444444,0,0,0.010850694444444444,149.46831597222223,0)" xlink:href="#ae"/><use transform="matrix(0.010850694444444444,0,0,0.010850694444444444,154.85026041666669,0)" xlink:href="#an"/></g><g id="M"><use transform="matrix(0.010850694444444444,0,0,0.010850694444444444,0,0)" xlink:href="#az"/><use transform="matrix(0.010850694444444444,0,0,0.010850694444444444,13.35720486111111,0)" xlink:href="#ac"/><use transform="matrix(0.010850694444444444,0,0,0.010850694444444444,26.48654513888889,0)" xlink:href="#ag"/><use transform="matrix(0.010850694444444444,0,0,0.010850694444444444,40.093315972222214,0)" xlink:href="#aO"/><use transform="matrix(0.010850694444444444,0,0,0.010850694444444444,53.70008680555554,0)" xlink:href="#ab"/><use transform="matrix(0.010850694444444444,0,0,0.010850694444444444,67.02473958333331,0)" xlink:href="#at"/><use transform="matrix(0.010850694444444444,0,0,0.010850694444444444,72.40668402777776,0)" xlink:href="#ac"/><use transform="matrix(0.010850694444444444,0,0,0.010850694444444444,85.53602430555553,0)" xlink:href="#aj"/></g><path d="M295 13c-75 0-135-60-135-135s60-135 135-135 135 60 135 135S370 13 295 13zm0-809c-75 0-135-60-135-135s60-135 135-135 135 60 135 135-60 135-135 135" id="bl"/><g id="N"><use transform="matrix(0.010850694444444444,0,0,0.010850694444444444,0,0)" xlink:href="#aS"/><use transform="matrix(0.010850694444444444,0,0,0.010850694444444444,8.0078125,0)" xlink:href="#Z"/><use transform="matrix(0.010850694444444444,0,0,0.010850694444444444,20.48611111111111,0)" xlink:href="#aO"/><use transform="matrix(0.010850694444444444,0,0,0.010850694444444444,34.09288194444444,0)" xlink:href="#at"/><use transform="matrix(0.010850694444444444,0,0,0.010850694444444444,39.474826388888886,0)" xlink:href="#aS"/><use transform="matrix(0.010850694444444444,0,0,0.010850694444444444,47.482638888888886,0)" xlink:href="#as"/><use transform="matrix(0.010850694444444444,0,0,0.010850694444444444,60.39496527777778,0)" xlink:href="#Z"/><use transform="matrix(0.010850694444444444,0,0,0.010850694444444444,72.87326388888889,0)" xlink:href="#ae"/><use transform="matrix(0.010850694444444444,0,0,0.010850694444444444,78.25520833333333,0)" xlink:href="#an"/><use transform="matrix(0.010850694444444444,0,0,0.010850694444444444,91.2109375,0)" xlink:href="#ac"/><use transform="matrix(0.010850694444444444,0,0,0.010850694444444444,104.34027777777777,0)" xlink:href="#ag"/><use transform="matrix(0.010850694444444444,0,0,0.010850694444444444,117.9470486111111,0)" xlink:href="#Z"/><use transform="matrix(0.010850694444444444,0,0,0.010850694444444444,130.4253472222222,0)" xlink:href="#ai"/><use transform="matrix(0.010850694444444444,0,0,0.010850694444444444,138.0425347222222,0)" xlink:href="#aS"/><use transform="matrix(0.010850694444444444,0,0,0.010850694444444444,146.0503472222222,0)" xlink:href="#bl"/><use transform="matrix(0.010850694444444444,0,0,0.010850694444444444,152.45225694444443,0)" xlink:href="#am"/><use transform="matrix(0.010850694444444444,0,0,0.010850694444444444,169.03211805555554,0)" xlink:href="#ai"/><use transform="matrix(0.010850694444444444,0,0,0.010850694444444444,177.0290798611111,0)" xlink:href="#ab"/><use transform="matrix(0.010850694444444444,0,0,0.010850694444444444,190.35373263888883,0)" xlink:href="#af"/><use transform="matrix(0.010850694444444444,0,0,0.010850694444444444,203.49392361111111,0)" xlink:href="#aO"/><use transform="matrix(0.010850694444444444,0,0,0.010850694444444444,217.10069444444443,0)" xlink:href="#al"/><use transform="matrix(0.010850694444444444,0,0,0.010850694444444444,223.06857638888889,0)" xlink:href="#ag"/></g><path d="M784 20c-382 0-662-292-662-764 0-473 280-766 662-766s660 293 660 766c0 472-278 764-660 764zm0-176c266 0 475-207 475-588 0-383-209-590-475-590-268 0-477 208-477 590 0 380 209 588 477 588" id="bm"/><path d="M657 26c-323 0-524-166-541-416h195c15 169 171 246 346 246 202 0 356-106 356-265 5-203-294-238-475-293-239-73-380-191-380-389 0-252 224-419 512-419 294 0 499 171 508 396H992c-17-145-151-228-328-228-193 0-321 102-321 242 0 156 175 211 284 241l149 41c160 44 422 134 422 412 0 244-197 432-541 432" id="bn"/><g id="O"><use transform="matrix(0.010850694444444444,0,0,0.010850694444444444,0,0)" xlink:href="#ak"/><use transform="matrix(0.010850694444444444,0,0,0.010850694444444444,14.192708333333332,0)" xlink:href="#bm"/><use transform="matrix(0.010850694444444444,0,0,0.010850694444444444,31.184895833333332,0)" xlink:href="#bn"/><use transform="matrix(0.010850694444444444,0,0,0.010850694444444444,45.44270833333333,0)" xlink:href="#bk"/></g><path d="M798-719v166H144v-166h654" id="bo"/><g id="P"><use transform="matrix(0.010850694444444444,0,0,0.010850694444444444,0,0)" xlink:href="#aS"/><use transform="matrix(0.010850694444444444,0,0,0.010850694444444444,8.0078125,0)" xlink:href="#Z"/><use transform="matrix(0.010850694444444444,0,0,0.010850694444444444,20.48611111111111,0)" xlink:href="#aO"/><use transform="matrix(0.010850694444444444,0,0,0.010850694444444444,34.09288194444444,0)" xlink:href="#at"/><use transform="matrix(0.010850694444444444,0,0,0.010850694444444444,39.474826388888886,0)" xlink:href="#aS"/><use transform="matrix(0.010850694444444444,0,0,0.010850694444444444,47.482638888888886,0)" xlink:href="#as"/><use transform="matrix(0.010850694444444444,0,0,0.010850694444444444,60.39496527777778,0)" xlink:href="#Z"/><use transform="matrix(0.010850694444444444,0,0,0.010850694444444444,72.87326388888889,0)" xlink:href="#ae"/><use transform="matrix(0.010850694444444444,0,0,0.010850694444444444,78.25520833333333,0)" xlink:href="#an"/><use transform="matrix(0.010850694444444444,0,0,0.010850694444444444,91.2109375,0)" xlink:href="#ac"/><use transform="matrix(0.010850694444444444,0,0,0.010850694444444444,104.34027777777777,0)" xlink:href="#ag"/><use transform="matrix(0.010850694444444444,0,0,0.010850694444444444,117.9470486111111,0)" xlink:href="#Z"/><use transform="matrix(0.010850694444444444,0,0,0.010850694444444444,130.4253472222222,0)" xlink:href="#ai"/><use transform="matrix(0.010850694444444444,0,0,0.010850694444444444,138.0425347222222,0)" xlink:href="#aS"/><use transform="matrix(0.010850694444444444,0,0,0.010850694444444444,146.0503472222222,0)" xlink:href="#bl"/><use transform="matrix(0.010850694444444444,0,0,0.010850694444444444,152.45225694444443,0)" xlink:href="#aR"/><use transform="matrix(0.010850694444444444,0,0,0.010850694444444444,166.08072916666666,0)" xlink:href="#ai"/><use transform="matrix(0.010850694444444444,0,0,0.010850694444444444,174.0776909722222,0)" xlink:href="#ab"/><use transform="matrix(0.010850694444444444,0,0,0.010850694444444444,187.40234374999994,0)" xlink:href="#af"/><use transform="matrix(0.010850694444444444,0,0,0.010850694444444444,200.54253472222223,0)" xlink:href="#aO"/><use transform="matrix(0.010850694444444444,0,0,0.010850694444444444,214.14930555555554,0)" xlink:href="#al"/><use transform="matrix(0.010850694444444444,0,0,0.010850694444444444,220.1171875,0)" xlink:href="#ag"/><use transform="matrix(0.010850694444444444,0,0,0.010850694444444444,233.72395833333331,0)" xlink:href="#aS"/><use transform="matrix(0.010850694444444444,0,0,0.010850694444444444,241.73177083333331,0)" xlink:href="#ai"/><use transform="matrix(0.010850694444444444,0,0,0.010850694444444444,249.72873263888889,0)" xlink:href="#an"/><use transform="matrix(0.010850694444444444,0,0,0.010850694444444444,262.68446180555554,0)" xlink:href="#Y"/><use transform="matrix(0.010850694444444444,0,0,0.010850694444444444,282.15060763888886,0)" xlink:href="#ab"/><use transform="matrix(0.010850694444444444,0,0,0.010850694444444444,295.04123263888886,0)" xlink:href="#ay"/><use transform="matrix(0.010850694444444444,0,0,0.010850694444444444,307.09635416666663,0)" xlink:href="#an"/><use transform="matrix(0.010850694444444444,0,0,0.010850694444444444,320.0520833333333,0)" xlink:href="#bo"/><use transform="matrix(0.010850694444444444,0,0,0.010850694444444444,330.2734375,0)" xlink:href="#Y"/><use transform="matrix(0.010850694444444444,0,0,0.010850694444444444,349.7395833333333,0)" xlink:href="#an"/><use transform="matrix(0.010850694444444444,0,0,0.010850694444444444,362.6953125,0)" xlink:href="#Y"/><use transform="matrix(0.010850694444444444,0,0,0.010850694444444444,382.1614583333333,0)" xlink:href="#ar"/><use transform="matrix(0.010850694444444444,0,0,0.010850694444444444,395.76822916666663,0)" xlink:href="#an"/><use transform="matrix(0.010850694444444444,0,0,0.010850694444444444,408.7239583333333,0)" xlink:href="#ai"/></g><path fill="#333" d="M443 0L31-1118h319c90 293 199 572 268 885 66-313 175-593 264-885h315L784 0H443" id="bp"/><path fill="#333" d="M428-647V0H128v-1118h283l4 231c63-156 176-245 348-245 232 0 384 159 384 421V0H847v-659c0-139-76-222-202-222-128 0-217 86-217 234" id="bq"/><path fill="#333" d="M625 442c-280 0-454-114-503-274l258-72c28 63 97 128 243 128 153 0 246-69 246-216v-206h-23C805-108 717-16 536-16 284-16 81-191 81-561c0-378 208-571 456-571 188 0 280 113 321 202h13v-188h295V-9c0 303-226 451-541 451zm5-686c153 0 240-119 240-319 0-198-86-329-240-329-158 0-241 137-241 329 0 195 85 319 241 319" id="br"/><g id="Q"><use transform="matrix(0.008680555555555556,0,0,0.008680555555555556,0,0)" xlink:href="#aY"/><use transform="matrix(0.008680555555555556,0,0,0.008680555555555556,11.458333333333334,0)" xlink:href="#aZ"/><use transform="matrix(0.008680555555555556,0,0,0.008680555555555556,22.048611111111114,0)" xlink:href="#bd"/><use transform="matrix(0.008680555555555556,0,0,0.008680555555555556,28.559027777777782,0)" xlink:href="#bf"/><use transform="matrix(0.008680555555555556,0,0,0.008680555555555556,35.92881944444444,0)" xlink:href="#bi"/><use transform="matrix(0.008680555555555556,0,0,0.008680555555555556,40.746527777777786,0)" xlink:href="#aZ"/><use transform="matrix(0.008680555555555556,0,0,0.008680555555555556,51.01562500000001,0)" xlink:href="#bp"/><use transform="matrix(0.008680555555555556,0,0,0.008680555555555556,61.67534722222222,0)" xlink:href="#bi"/><use transform="matrix(0.008680555555555556,0,0,0.008680555555555556,66.49305555555556,0)" xlink:href="#bq"/><use transform="matrix(0.008680555555555556,0,0,0.008680555555555556,77.56076388888889,0)" xlink:href="#br"/></g><path fill="#333" d="M750 21c-371 0-615-218-615-544v-967h305v942c0 174 123 299 310 299s309-125 309-299v-942h306v967c0 326-247 544-615 544" id="bs"/><g id="R"><use transform="matrix(0.008680555555555556,0,0,0.008680555555555556,0,0)" xlink:href="#bs"/><use transform="matrix(0.008680555555555556,0,0,0.008680555555555556,13.012152777777779,0)" xlink:href="#bc"/><use transform="matrix(0.008680555555555556,0,0,0.008680555555555556,22.96875,0)" xlink:href="#aZ"/><use transform="matrix(0.008680555555555556,0,0,0.008680555555555556,33.55902777777778,0)" xlink:href="#bf"/></g><path fill="#333" d="M135 0v-1490h980v253H440v416h609v249H440V0H135" id="bt"/><path fill="#333" d="M135 0v-1490h591c327 0 492 160 492 383 0 177-115 286-268 320v15c168 8 326 140 326 361 0 236-176 411-512 411H135zm305-251h264c179 0 258-76 258-189 0-125-97-215-250-215H440v404zm0-613h241c131 0 228-74 228-194 0-109-79-183-222-183H440v377" id="bu"/><path fill="#333" d="M120 396l69-226c123 42 245 23 254-107l8-60L31-1118h319c87 288 199 559 259 872 72-308 185-583 277-872h315L726 132c-68 181-186 294-410 294-79 0-153-13-196-30" id="bv"/><g id="S"><use transform="matrix(0.008680555555555556,0,0,0.008680555555555556,0,0)" xlink:href="#bt"/><use transform="matrix(0.008680555555555556,0,0,0.008680555555555556,10.086805555555557,0)" xlink:href="#bf"/><use transform="matrix(0.008680555555555556,0,0,0.008680555555555556,16.892361111111114,0)" xlink:href="#aZ"/><use transform="matrix(0.008680555555555556,0,0,0.008680555555555556,27.482638888888893,0)" xlink:href="#aZ"/><use transform="matrix(0.008680555555555556,0,0,0.008680555555555556,38.07291666666667,0)" xlink:href="#bu"/><use transform="matrix(0.008680555555555556,0,0,0.008680555555555556,49.83506944444445,0)" xlink:href="#bb"/><use transform="matrix(0.008680555555555556,0,0,0.008680555555555556,60.902777777777786,0)" xlink:href="#bc"/><use transform="matrix(0.008680555555555556,0,0,0.008680555555555556,70.85937500000001,0)" xlink:href="#bv"/></g><g id="T"><use transform="matrix(0.008680555555555556,0,0,0.008680555555555556,0,0)" xlink:href="#bc"/><use transform="matrix(0.008680555555555556,0,0,0.008680555555555556,9.956597222222223,0)" xlink:href="#bd"/><use transform="matrix(0.008680555555555556,0,0,0.008680555555555556,16.553819444444446,0)" xlink:href="#bg"/><use transform="matrix(0.008680555555555556,0,0,0.008680555555555556,26.875,0)" xlink:href="#bd"/><use transform="matrix(0.008680555555555556,0,0,0.008680555555555556,33.385416666666664,0)" xlink:href="#bb"/><use transform="matrix(0.008680555555555556,0,0,0.008680555555555556,44.453125,0)" xlink:href="#bc"/><use transform="matrix(0.008680555555555556,0,0,0.008680555555555556,54.40972222222222,0)" xlink:href="#aZ"/><use transform="matrix(0.008680555555555556,0,0,0.008680555555555556,65,0)" xlink:href="#bc"/></g><g id="U"><use transform="matrix(0.010850694444444444,0,0,0.010850694444444444,0,0)" xlink:href="#ab"/><use transform="matrix(0.010850694444444444,0,0,0.010850694444444444,13.324652777777777,0)" xlink:href="#aj"/><use transform="matrix(0.010850694444444444,0,0,0.010850694444444444,20.594618055555554,0)" xlink:href="#aw"/><use transform="matrix(0.010850694444444444,0,0,0.010850694444444444,33.73480902777777,0)" xlink:href="#an"/><use transform="matrix(0.010850694444444444,0,0,0.010850694444444444,46.690538194444436,0)" xlink:href="#ai"/></g><g id="V"><use transform="matrix(0.010850694444444444,0,0,0.010850694444444444,0,0)" xlink:href="#Z"/><use transform="matrix(0.010850694444444444,0,0,0.010850694444444444,12.47829861111111,0)" xlink:href="#aO"/><use transform="matrix(0.010850694444444444,0,0,0.010850694444444444,26.085069444444443,0)" xlink:href="#at"/></g><g id="W"><use transform="matrix(0.010850694444444444,0,0,0.010850694444444444,0,0)" xlink:href="#an"/><use transform="matrix(0.010850694444444444,0,0,0.010850694444444444,12.955729166666666,0)" xlink:href="#ac"/><use transform="matrix(0.010850694444444444,0,0,0.010850694444444444,26.085069444444443,0)" xlink:href="#ag"/><use transform="matrix(0.010850694444444444,0,0,0.010850694444444444,39.69184027777777,0)" xlink:href="#aO"/><use transform="matrix(0.010850694444444444,0,0,0.010850694444444444,53.2986111111111,0)" xlink:href="#ab"/><use transform="matrix(0.010850694444444444,0,0,0.010850694444444444,66.62326388888887,0)" xlink:href="#at"/><use transform="matrix(0.010850694444444444,0,0,0.010850694444444444,72.00520833333331,0)" xlink:href="#ac"/><use transform="matrix(0.010850694444444444,0,0,0.010850694444444444,85.13454861111109,0)" xlink:href="#aj"/><use transform="matrix(0.010850694444444444,0,0,0.010850694444444444,92.18749999999997,0)" xlink:href="#av"/></g></defs></g></svg>